<?xml version="1.0" encoding="UTF-8" standalone="no"?>
<!DOCTYPE svg PUBLIC "-//W3C//DTD SVG 1.1//EN" "http://www.w3.org/Graphics/SVG/1.1/DTD/svg11.dtd">
<svg width="100%" height="100%" viewBox="0 0 500 500" version="1.1" xmlns="http://www.w3.org/2000/svg" xmlns:xlink="http://www.w3.org/1999/xlink" xml:space="preserve" xmlns:serif="http://www.serif.com/" style="fill-rule:evenodd;clip-rule:evenodd;stroke-linejoin:round;stroke-miterlimit:2;">
    <g transform="matrix(1,0,0,1,-755,-49)">
        <g id="icon" transform="matrix(1,0,0,1,755,49)">
            <path d="M250,0C388.071,0 500,111.929 500,250C500,250 500,250 500,250C500,388.071 388.071,500 250,500C250,500 250,500 250,500C111.929,500 -0,388.071 -0,250C0,250 0,250 0,250C0,111.929 111.929,0 250,0L250,0Z" style="fill:rgb(255,233,0);"/>
            <g id="vetcamp-icon-black.svg" transform="matrix(2.21622,0,0,2.21622,278,242)">
                <g transform="matrix(1,0,0,1,-74,-76.5)">
                    <g transform="matrix(2.04852,0,0,2.04852,-3978.6,-1010.59)">
                        <g>
                            <path d="M1981.12,567.775L1942.62,567.775L1942.62,498.669L1962.57,518.618L1962.57,493.42L1991.13,521.978L2013.97,521.978C2013.72,523.14 2013.43,524.288 2013.1,525.418C2013.05,525.595 2013,525.771 2012.94,525.946C2012.36,527.855 2011.67,529.716 2010.87,531.521C2009.85,533.832 2008.66,536.052 2007.31,538.164C2004.09,543.22 1999.99,547.659 1995.21,551.261C1993,552.928 1990.65,554.416 1988.18,555.702C1985.96,556.857 1983.65,557.85 1981.25,558.665C1981.21,558.68 1981.16,558.695 1981.12,558.71L1981.12,567.775ZM1982.92,528.72C1982.77,527.351 1982.11,526.138 1981.12,525.286C1980.2,524.494 1979,524.015 1977.69,524.015C1975.04,524.015 1972.85,525.986 1972.49,528.542C1972.46,528.778 1972.44,529.019 1972.44,529.264C1972.44,531.978 1974.51,534.213 1977.15,534.486C1977.33,534.504 1977.51,534.514 1977.69,534.514C1977.94,534.514 1978.18,534.497 1978.42,534.465C1979.44,534.323 1980.37,533.886 1981.12,533.242C1982.24,532.279 1982.94,530.854 1982.94,529.264C1982.94,529.08 1982.93,528.899 1982.92,528.72Z"/>
                        </g>
                    </g>
                </g>
            </g>
        </g>
    </g>
</svg>
