<?xml version="1.0" encoding="UTF-8" standalone="no"?>
<!DOCTYPE svg PUBLIC "-//W3C//DTD SVG 1.1//EN" "http://www.w3.org/Graphics/SVG/1.1/DTD/svg11.dtd">
<svg width="100%" height="100%" viewBox="0 0 1184 255" version="1.1" xmlns="http://www.w3.org/2000/svg" xmlns:xlink="http://www.w3.org/1999/xlink" xml:space="preserve" xmlns:serif="http://www.serif.com/" style="fill-rule:evenodd;clip-rule:evenodd;stroke-linejoin:round;stroke-miterlimit:2;">
    <g transform="matrix(1,0,0,1,-850,-849)">
        <g id="admin_logo_black">
            <g id="vetcamp-icon-black.svg" transform="matrix(1.64487,0,0,1.64487,971.72,975.382)">
                <g transform="matrix(1,0,0,1,-74,-76.5)">
                    <g transform="matrix(2.04852,0,0,2.04852,-3978.6,-1010.59)">
                        <g>
                            <path d="M1981.12,567.775L1942.62,567.775L1942.62,498.669L1962.57,518.618L1962.57,493.42L1991.13,521.978L2013.97,521.978C2013.72,523.14 2013.43,524.288 2013.1,525.418C2013.05,525.595 2013,525.771 2012.94,525.946C2012.36,527.855 2011.67,529.716 2010.87,531.521C2009.85,533.832 2008.66,536.052 2007.31,538.164C2004.09,543.22 1999.99,547.659 1995.21,551.261C1993,552.928 1990.65,554.416 1988.18,555.702C1985.96,556.857 1983.65,557.85 1981.25,558.665C1981.21,558.68 1981.16,558.695 1981.12,558.71L1981.12,567.775ZM1982.92,528.72C1982.77,527.351 1982.11,526.138 1981.12,525.286C1980.2,524.494 1979,524.015 1977.69,524.015C1975.04,524.015 1972.85,525.986 1972.49,528.542C1972.46,528.778 1972.44,529.019 1972.44,529.264C1972.44,531.978 1974.51,534.213 1977.15,534.486C1977.33,534.504 1977.51,534.514 1977.69,534.514C1977.94,534.514 1978.18,534.497 1978.42,534.465C1979.44,534.323 1980.37,533.886 1981.12,533.242C1982.24,532.279 1982.94,530.854 1982.94,529.264C1982.94,529.08 1982.93,528.899 1982.92,528.72Z"/>
                        </g>
                    </g>
                </g>
            </g>
            <g transform="matrix(0.644636,0,0,0.644636,313.431,625.38)">
                <path d="M1444.28,407.73L1563.57,738.144L1493.04,738.144L1391.27,442.759L1419.67,442.759L1317.89,738.144L1247.83,738.144L1367.12,407.73L1444.28,407.73ZM1315.53,622.168L1490.67,622.168L1507.72,675.185L1298.49,675.185L1315.53,622.168Z" style="fill-rule:nonzero;"/>
                <path d="M1666.77,741.458C1643.73,741.458 1623.38,735.698 1605.7,724.18C1588.03,712.661 1574.15,696.724 1564.05,676.369C1553.95,656.014 1548.9,632.897 1548.9,607.02C1548.9,580.826 1553.95,557.631 1564.05,537.434C1574.15,517.237 1588.03,501.379 1605.7,489.86C1623.38,478.341 1643.73,472.582 1666.77,472.582C1687.6,472.582 1705.74,477.947 1721.21,488.677C1736.67,499.406 1747.87,514.239 1754.82,533.174L1754.82,387.848L1822.04,387.848L1822.04,738.144L1789.85,738.144C1779.12,738.144 1770.6,734.909 1764.28,728.44C1757.97,721.97 1754.82,713.371 1754.82,702.641L1754.82,680.393C1747.87,699.643 1736.67,714.633 1721.21,725.363C1705.74,736.093 1687.6,741.458 1666.77,741.458ZM1685.7,683.233C1698.01,683.233 1709.37,680.235 1719.79,674.239C1730.2,668.243 1738.64,659.564 1745.11,648.203C1751.58,636.842 1754.82,623.114 1754.82,607.02C1754.82,590.61 1751.58,576.724 1745.11,565.363C1738.64,554.002 1730.2,545.402 1719.79,539.564C1709.37,533.726 1698.01,530.807 1685.7,530.807C1674.03,530.807 1662.9,533.726 1652.33,539.564C1641.76,545.402 1633.24,554.002 1626.77,565.363C1620.3,576.724 1617.07,590.61 1617.07,607.02C1617.07,623.114 1620.3,636.842 1626.77,648.203C1633.24,659.564 1641.76,668.243 1652.33,674.239C1662.9,680.235 1674.03,683.233 1685.7,683.233Z" style="fill-rule:nonzero;"/>
                <path d="M1854.7,738.144L1854.7,475.895L1921.44,475.895L1921.44,531.28C1925.55,519.604 1931.86,509.347 1940.38,500.511C1948.9,491.675 1958.68,484.811 1969.73,479.919C1980.77,475.028 1992.13,472.582 2003.81,472.582C2027.8,472.582 2047.84,479.288 2063.93,492.7C2080.02,506.112 2089.97,524.337 2093.75,547.375C2097.54,531.596 2103.85,518.183 2112.69,507.138C2121.52,496.093 2132.25,487.572 2144.88,481.576C2157.5,475.58 2171.07,472.582 2185.59,472.582C2217.14,472.582 2242.15,482.207 2260.62,501.458C2279.08,520.708 2288.31,548.322 2288.31,584.298L2288.31,738.144L2221.56,738.144L2221.56,597.079C2221.56,575.935 2216.2,559.367 2205.47,547.375C2194.74,535.383 2180.7,529.387 2163.34,529.387C2145.66,529.387 2131.46,536.251 2120.73,549.978C2110,563.706 2104.64,580.984 2104.64,601.813L2104.64,738.144L2038.37,738.144L2038.37,597.079C2038.37,575.935 2033,559.367 2022.27,547.375C2011.54,535.383 1997.5,529.387 1980.14,529.387C1968.47,529.387 1958.21,532.542 1949.37,538.854C1940.54,545.166 1933.67,553.765 1928.78,564.653C1923.89,575.54 1921.44,587.927 1921.44,601.813L1921.44,738.144L1854.7,738.144Z" style="fill-rule:nonzero;"/>
                <path d="M2318.13,738.144L2318.13,475.895L2385.35,475.895L2385.35,738.144L2318.13,738.144ZM2352.21,444.179C2338.96,444.179 2327.91,440.156 2319.08,432.108C2310.24,424.061 2305.82,414.041 2305.82,402.049C2305.82,390.057 2310.24,379.959 2319.08,371.753C2327.91,363.548 2338.96,359.446 2352.21,359.446C2365.47,359.446 2376.51,363.548 2385.35,371.753C2394.19,379.959 2398.6,390.057 2398.6,402.049C2398.6,414.041 2394.19,424.061 2385.35,432.108C2376.51,440.156 2365.47,444.179 2352.21,444.179Z" style="fill-rule:nonzero;"/>
                <path d="M2418.96,738.144L2418.96,475.895L2485.7,475.895L2485.7,531.28C2489.81,519.604 2496.12,509.347 2504.64,500.511C2513.16,491.675 2523.1,484.811 2534.46,479.919C2545.82,475.028 2557.5,472.582 2569.49,472.582C2589.37,472.582 2606.81,477 2621.8,485.836C2636.79,494.673 2648.39,507.375 2656.59,523.943C2664.8,540.511 2668.9,560.471 2668.9,583.825L2668.9,738.144L2602.63,738.144L2602.63,596.132C2602.63,575.304 2597.26,558.972 2586.53,547.138C2575.8,535.304 2561.76,529.387 2544.4,529.387C2532.73,529.387 2522.47,532.464 2513.63,538.617C2504.8,544.771 2497.93,553.213 2493.04,563.943C2488.15,574.673 2485.7,586.98 2485.7,600.866L2485.7,738.144L2418.96,738.144Z" style="fill-rule:nonzero;"/>
            </g>
        </g>
    </g>
</svg>
