<?xml version="1.0" encoding="UTF-8" standalone="no"?>
<!DOCTYPE svg PUBLIC "-//W3C//DTD SVG 1.1//EN" "http://www.w3.org/Graphics/SVG/1.1/DTD/svg11.dtd">
<svg width="100%" height="100%" viewBox="0 0 1093 116" version="1.1" xmlns="http://www.w3.org/2000/svg" xmlns:xlink="http://www.w3.org/1999/xlink" xml:space="preserve" xmlns:serif="http://www.serif.com/" style="fill-rule:evenodd;clip-rule:evenodd;stroke-linejoin:round;stroke-miterlimit:2;">
    <g transform="matrix(1,0,0,1,-347,-767)">
        <g id="admin_logo_black" transform="matrix(1,0,0,1,-59.5862,358.663)">
            <path d="M1072.58,445.535L1097.99,445.535L1097.99,461.676L1080.87,461.676L1080.87,499.853C1080.87,502.286 1081.57,504.11 1082.97,505.327C1084.37,506.543 1085.96,507.151 1087.74,507.151C1088.87,507.151 1089.92,506.964 1090.9,506.59C1091.88,506.216 1092.84,505.654 1093.78,504.906L1100.8,518.52C1098.36,520.485 1095.84,521.935 1093.22,522.871C1090.6,523.807 1087.69,524.275 1084.51,524.275C1077.22,524.275 1071.44,522.099 1067.18,517.748C1062.92,513.397 1060.79,507.198 1060.79,499.151L1060.79,461.676L1048.72,461.676L1048.72,445.535L1054.62,445.535C1056.68,445.535 1058.29,444.927 1059.46,443.71C1060.63,442.494 1061.21,440.857 1061.21,438.798L1061.21,426.306L1080.87,426.306L1080.87,435.57C1080.87,436.973 1080.51,438.377 1079.81,439.78C1079.11,441.184 1078.15,442.4 1076.93,443.43C1075.72,444.459 1074.27,445.161 1072.58,445.535ZM1125.36,486.94L1125.36,523.292L1105.57,523.292L1105.57,445.535L1125.36,445.535L1125.36,463.36C1127.13,457.559 1130.15,452.974 1134.41,449.605C1138.67,446.237 1143.74,444.553 1149.64,444.553L1149.64,465.325C1148.8,465.045 1147.98,464.881 1147.18,464.834C1146.39,464.787 1145.57,464.764 1144.73,464.764C1141.08,464.764 1137.78,465.606 1134.83,467.29C1131.88,468.974 1129.57,471.454 1127.88,474.729C1126.2,478.004 1125.36,482.074 1125.36,486.94ZM554.786,504.625L548.354,523.292L527.582,523.292L562.951,425.324L585.829,425.324L621.199,523.292L600.286,523.292L593.854,504.625L554.786,504.625ZM588.438,488.905L574.32,447.931L560.203,488.905L588.438,488.905ZM466.267,523.292L406.892,523.292L406.892,416.716L437.659,447.482L437.659,408.621L481.704,452.664L516.928,452.664C516.543,454.456 516.096,456.226 515.587,457.969C515.51,458.242 515.432,458.513 515.34,458.783C514.445,461.727 513.381,464.597 512.148,467.381C510.575,470.945 508.739,474.369 506.657,477.626C501.691,485.423 495.368,492.269 487.997,497.824C484.588,500.395 480.964,502.69 477.155,504.673C473.731,506.454 470.169,507.986 466.467,509.243C466.406,509.266 466.329,509.289 466.267,509.312L466.267,523.292ZM469.043,463.061C468.812,460.95 467.794,459.079 466.267,457.765C464.848,456.544 462.997,455.805 460.977,455.805C456.89,455.805 453.513,458.845 452.958,462.787C452.911,463.151 452.881,463.522 452.881,463.9C452.881,468.086 456.073,471.533 460.144,471.954C460.422,471.981 460.7,471.997 460.977,471.997C461.363,471.997 461.733,471.971 462.103,471.921C463.676,471.702 465.11,471.028 466.267,470.035C467.994,468.55 469.074,466.352 469.074,463.9C469.074,463.617 469.058,463.337 469.043,463.061ZM652.077,524.275C645.247,524.275 639.211,522.567 633.971,519.152C628.732,515.736 624.614,511.011 621.62,504.976C618.626,498.94 617.129,492.086 617.129,484.414C617.129,476.647 618.626,469.77 621.62,463.781C624.614,457.793 628.732,453.091 633.971,449.676C639.211,446.26 645.247,444.553 652.077,444.553C658.253,444.553 663.633,446.143 668.218,449.325C672.803,452.506 676.125,456.904 678.184,462.518L678.184,419.429L698.114,419.429L698.114,523.292L688.57,523.292C685.389,523.292 682.862,522.333 680.991,520.415C679.119,518.497 678.184,515.947 678.184,512.766L678.184,506.169C676.125,511.877 672.803,516.321 668.218,519.503C663.633,522.684 658.253,524.275 652.077,524.275ZM657.692,507.011C661.341,507.011 664.709,506.122 667.797,504.344C670.885,502.566 673.388,499.993 675.306,496.625C677.225,493.256 678.184,489.186 678.184,484.414C678.184,479.548 677.225,475.431 675.306,472.062C673.388,468.694 670.885,466.144 667.797,464.413C664.709,462.682 661.341,461.816 657.692,461.816C654.23,461.816 650.931,462.682 647.797,464.413C644.662,466.144 642.136,468.694 640.217,472.062C638.299,475.431 637.34,479.548 637.34,484.414C637.34,489.186 638.299,493.256 640.217,496.625C642.136,499.993 644.662,502.566 647.797,504.344C650.931,506.122 654.23,507.011 657.692,507.011ZM708.079,523.292L708.079,445.535L727.87,445.535L727.87,461.957C729.086,458.495 730.957,455.454 733.484,452.834C736.01,450.214 738.911,448.178 742.186,446.728C745.461,445.278 748.829,444.553 752.292,444.553C759.403,444.553 765.345,446.541 770.117,450.518C774.889,454.494 777.836,459.898 778.959,466.729C780.082,462.05 781.953,458.074 784.573,454.799C787.193,451.524 790.375,448.997 794.118,447.219C797.86,445.441 801.884,444.553 806.188,444.553C815.545,444.553 822.961,447.406 828.435,453.114C833.909,458.822 836.645,467.01 836.645,477.677L836.645,523.292L816.855,523.292L816.855,481.466C816.855,475.197 815.265,470.284 812.083,466.729C808.902,463.173 804.738,461.395 799.591,461.395C794.352,461.395 790.141,463.43 786.959,467.501C783.778,471.571 782.187,476.694 782.187,482.87L782.187,523.292L762.538,523.292L762.538,481.466C762.538,475.197 760.947,470.284 757.765,466.729C754.584,463.173 750.42,461.395 745.274,461.395C741.812,461.395 738.771,462.331 736.151,464.202C733.531,466.074 731.495,468.624 730.045,471.852C728.595,475.08 727.87,478.753 727.87,482.87L727.87,523.292L708.079,523.292ZM845.769,523.292L845.769,445.535L865.699,445.535L865.699,523.292L845.769,523.292ZM855.874,436.131C851.944,436.131 848.669,434.938 846.049,432.552C843.429,430.166 842.119,427.195 842.119,423.64C842.119,420.084 843.429,417.09 846.049,414.657C848.669,412.224 851.944,411.007 855.874,411.007C859.804,411.007 863.079,412.224 865.699,414.657C868.319,417.09 869.629,420.084 869.629,423.64C869.629,427.195 868.319,430.166 865.699,432.552C863.079,434.938 859.804,436.131 855.874,436.131ZM875.945,523.292L875.945,445.535L895.735,445.535L895.735,461.957C896.952,458.495 898.823,455.454 901.35,452.834C903.876,450.214 906.823,448.178 910.192,446.728C913.561,445.278 917.023,444.553 920.578,444.553C926.473,444.553 931.643,445.863 936.088,448.483C940.532,451.103 943.971,454.869 946.404,459.781C948.837,464.694 950.053,470.612 950.053,477.536L950.053,523.292L930.403,523.292L930.403,481.185C930.403,475.01 928.813,470.168 925.631,466.659C922.45,463.15 918.286,461.395 913.139,461.395C909.677,461.395 906.636,462.308 904.016,464.132C901.396,465.957 899.361,468.46 897.911,471.641C896.46,474.823 895.735,478.472 895.735,482.589L895.735,523.292L875.945,523.292ZM959.317,523.292L959.317,445.535L979.247,445.535L979.247,523.292L959.317,523.292ZM969.422,436.131C965.492,436.131 962.217,434.938 959.597,432.552C956.977,430.166 955.667,427.195 955.667,423.64C955.667,420.084 956.977,417.09 959.597,414.657C962.217,412.224 965.492,411.007 969.422,411.007C973.352,411.007 976.627,412.224 979.247,414.657C981.867,417.09 983.177,420.084 983.177,423.64C983.177,427.195 981.867,430.166 979.247,432.552C976.627,434.938 973.352,436.131 969.422,436.131ZM1017.99,524.275C1012.37,524.275 1007.32,523.362 1002.83,521.538C998.336,519.713 994.593,517.163 991.598,513.888C988.604,510.613 986.499,506.964 985.282,502.941L1003.81,498.73C1004.65,501.818 1006.34,504.274 1008.86,506.099C1011.39,507.923 1014.34,508.836 1017.71,508.836C1021.63,508.836 1024.61,508.087 1026.62,506.59C1028.63,505.093 1029.63,503.221 1029.63,500.976C1029.63,498.636 1028.58,496.835 1026.48,495.572C1024.37,494.309 1021.66,493.279 1018.34,492.484C1015.01,491.689 1011.48,490.8 1007.74,489.817C1004,488.835 1000.44,487.525 997.072,485.887C993.704,484.25 990.967,482.004 988.861,479.15C986.756,476.296 985.703,472.483 985.703,467.711C985.703,463.501 986.943,459.617 989.423,456.062C991.903,452.506 995.435,449.699 1000.02,447.64C1004.61,445.582 1010.08,444.553 1016.44,444.553C1021.96,444.553 1026.83,445.395 1031.04,447.079C1035.25,448.763 1038.71,451.173 1041.42,454.307C1044.14,457.442 1046.01,461.115 1047.04,465.325L1029.07,470.097C1028.23,466.822 1026.76,464.319 1024.65,462.588C1022.55,460.857 1019.62,459.992 1015.88,459.992C1012.32,459.992 1009.61,460.67 1007.74,462.027C1005.87,463.384 1004.93,465.185 1004.93,467.431C1004.93,469.77 1005.99,471.571 1008.09,472.834C1010.2,474.097 1012.91,475.174 1016.23,476.062C1019.55,476.951 1023.09,477.887 1026.83,478.87C1030.57,479.852 1034.1,481.185 1037.42,482.87C1040.75,484.554 1043.46,486.846 1045.57,489.747C1047.67,492.648 1048.72,496.484 1048.72,501.256C1048.72,505.467 1047.46,509.327 1044.93,512.836C1042.41,516.345 1038.85,519.128 1034.27,521.187C1029.68,523.245 1024.26,524.275 1017.99,524.275ZM1184.17,524.275C1177.34,524.275 1171.3,522.567 1166.06,519.152C1160.82,515.736 1156.7,511.011 1153.71,504.976C1150.71,498.94 1149.22,492.086 1149.22,484.414C1149.22,476.647 1150.71,469.77 1153.71,463.781C1156.7,457.793 1160.82,453.091 1166.06,449.676C1171.3,446.26 1177.34,444.553 1184.17,444.553C1190.34,444.553 1195.72,446.143 1200.31,449.325C1204.89,452.506 1208.21,456.904 1210.27,462.518L1210.27,445.535L1230.2,445.535L1230.2,523.292L1220.66,523.292C1217.48,523.292 1214.95,522.333 1213.08,520.415C1211.21,518.497 1210.27,515.947 1210.27,512.766L1210.27,506.169C1208.21,511.877 1204.89,516.321 1200.31,519.503C1195.72,522.684 1190.34,524.275 1184.17,524.275ZM1189.78,507.011C1193.43,507.011 1196.8,506.122 1199.89,504.344C1202.97,502.566 1205.48,499.993 1207.4,496.625C1209.31,493.256 1210.27,489.186 1210.27,484.414C1210.27,479.548 1209.31,475.431 1207.4,472.062C1205.48,468.694 1202.97,466.144 1199.89,464.413C1196.8,462.682 1193.43,461.816 1189.78,461.816C1186.32,461.816 1183.02,462.682 1179.89,464.413C1176.75,466.144 1174.23,468.694 1172.31,472.062C1170.39,475.431 1169.43,479.548 1169.43,484.414C1169.43,489.186 1170.39,493.256 1172.31,496.625C1174.23,499.993 1176.75,502.566 1179.89,504.344C1183.02,506.122 1186.32,507.011 1189.78,507.011ZM1273.57,524.275C1266.09,524.275 1259.44,522.637 1253.64,519.362C1247.84,516.087 1243.3,511.432 1240.03,505.397C1236.75,499.362 1235.12,492.32 1235.12,484.273C1235.12,476.226 1236.73,469.232 1239.96,463.29C1243.19,457.348 1247.7,452.74 1253.5,449.465C1259.3,446.19 1265.99,444.553 1273.57,444.553C1277.69,444.553 1281.6,444.974 1285.29,445.816C1288.99,446.658 1292.33,447.991 1295.33,449.816C1298.32,451.641 1300.99,454.073 1303.33,457.114C1305.67,460.155 1307.59,463.922 1309.08,468.413L1290,474.448C1288.59,470.144 1286.51,466.869 1283.75,464.623C1280.99,462.378 1277.55,461.255 1273.43,461.255C1269.78,461.255 1266.6,462.144 1263.89,463.922C1261.17,465.7 1259.07,468.296 1257.57,471.711C1256.08,475.127 1255.33,479.314 1255.33,484.273C1255.33,489.233 1256.08,493.443 1257.57,496.905C1259.07,500.367 1261.17,503.011 1263.89,504.835C1266.6,506.66 1269.78,507.572 1273.43,507.572C1278.2,507.572 1282.02,506.192 1284.87,503.432C1287.73,500.672 1289.67,497.139 1290.7,492.835L1309.93,497.326C1308.71,502.098 1306.53,506.543 1303.4,510.66C1300.27,514.777 1296.26,518.076 1291.4,520.555C1286.53,523.035 1280.59,524.275 1273.57,524.275ZM1315.12,523.292L1315.12,445.535L1335.05,445.535L1335.05,523.292L1315.12,523.292ZM1325.23,436.131C1321.3,436.131 1318.02,434.938 1315.4,432.552C1312.78,430.166 1311.47,427.195 1311.47,423.64C1311.47,420.084 1312.78,417.09 1315.4,414.657C1318.02,412.224 1321.3,411.007 1325.23,411.007C1329.15,411.007 1332.43,412.224 1335.05,414.657C1337.67,417.09 1338.98,420.084 1338.98,423.64C1338.98,427.195 1337.67,430.166 1335.05,432.552C1332.43,434.938 1329.15,436.131 1325.23,436.131ZM1379.82,524.275C1372.34,524.275 1365.62,522.637 1359.68,519.362C1353.74,516.087 1349.02,511.456 1345.51,505.467C1342,499.479 1340.24,492.414 1340.24,484.273C1340.24,476.133 1342.02,469.091 1345.58,463.15C1349.13,457.208 1353.95,452.623 1360.03,449.395C1366.12,446.167 1372.9,444.553 1380.38,444.553C1387.87,444.553 1394.63,446.167 1400.67,449.395C1406.7,452.623 1411.5,457.208 1415.05,463.15C1418.61,469.091 1420.39,476.133 1420.39,484.273C1420.39,492.414 1418.59,499.479 1414.98,505.467C1411.38,511.456 1406.51,516.087 1400.38,519.362C1394.26,522.637 1387.4,524.275 1379.82,524.275ZM1379.82,507.011C1383.29,507.011 1386.56,506.192 1389.65,504.555C1392.74,502.917 1395.26,500.391 1397.23,496.976C1399.19,493.56 1400.17,489.326 1400.17,484.273C1400.17,479.22 1399.21,475.01 1397.3,471.641C1395.38,468.273 1392.9,465.77 1389.86,464.132C1386.82,462.495 1383.57,461.676 1380.1,461.676C1376.64,461.676 1373.44,462.495 1370.49,464.132C1367.54,465.77 1365.13,468.273 1363.26,471.641C1361.39,475.01 1360.45,479.22 1360.45,484.273C1360.45,489.326 1361.34,493.56 1363.12,496.976C1364.9,500.391 1367.26,502.917 1370.21,504.555C1373.16,506.192 1376.36,507.011 1379.82,507.011ZM1395.68,408.621L1395.68,424.622L1363.26,439.359L1363.26,425.324L1395.68,408.621ZM1425.44,523.292L1425.44,445.535L1445.23,445.535L1445.23,461.957C1446.44,458.495 1448.32,455.454 1450.84,452.834C1453.37,450.214 1456.32,448.178 1459.69,446.728C1463.05,445.278 1466.52,444.553 1470.07,444.553C1475.97,444.553 1481.14,445.863 1485.58,448.483C1490.03,451.103 1493.46,454.869 1495.9,459.781C1498.33,464.694 1499.55,470.612 1499.55,477.536L1499.55,523.292L1479.9,523.292L1479.9,481.185C1479.9,475.01 1478.31,470.168 1475.12,466.659C1471.94,463.15 1467.78,461.395 1462.63,461.395C1459.17,461.395 1456.13,462.308 1453.51,464.132C1450.89,465.957 1448.86,468.46 1447.4,471.641C1445.95,474.823 1445.23,478.472 1445.23,482.589L1445.23,523.292L1425.44,523.292Z"/>
        </g>
    </g>
</svg>
