<?xml version="1.0" encoding="UTF-8" standalone="no"?>
<!DOCTYPE svg PUBLIC "-//W3C//DTD SVG 1.1//EN" "http://www.w3.org/Graphics/SVG/1.1/DTD/svg11.dtd">
<svg width="100%" height="100%" viewBox="0 0 45 45" version="1.1" xmlns="http://www.w3.org/2000/svg" xmlns:xlink="http://www.w3.org/1999/xlink" xml:space="preserve" xmlns:serif="http://www.serif.com/" style="fill-rule:evenodd;clip-rule:evenodd;stroke-linejoin:round;stroke-miterlimit:2;">
    <g transform="matrix(1,0,0,1,-925,-845)">
        <g id="code-nd00" transform="matrix(1,0,0,1,77.0153,0.714418)">
            <g transform="matrix(0.485541,0,0,0.485541,264.345,761.551)">
                <path d="M1276.35,219.404C1276.55,220.96 1276.65,222.547 1276.65,224.157C1276.65,244.661 1260.01,261.307 1239.5,261.307C1219,261.307 1202.35,244.661 1202.35,224.157C1202.35,203.654 1219,187.007 1239.5,187.007C1242.92,187.007 1246.24,187.471 1249.39,188.34L1249.99,189.289L1253.2,193.003L1249.99,196.716L1247.53,200.581L1246.28,204.898L1246.28,209.393L1247.57,213.792L1250.06,217.643L1253.46,220.579L1257.55,222.45L1262.08,223.108L1262.45,223.108L1265.87,222.737L1269.1,221.658L1272.02,219.919L1274.46,217.642L1276.35,219.404ZM1262.42,194.924C1266.63,198.232 1270.11,202.43 1272.58,207.233L1268.3,212.19C1266.83,213.891 1264.7,214.87 1262.45,214.87L1262.08,214.87C1259.06,214.87 1256.32,213.108 1255.06,210.361C1253.8,207.614 1254.26,204.385 1256.23,202.097L1262.42,194.924ZM1239.5,214.87C1234.38,214.87 1230.21,219.031 1230.21,224.157C1230.21,229.283 1234.38,233.445 1239.5,233.445C1244.63,233.445 1248.79,229.283 1248.79,224.157C1248.79,219.031 1244.63,214.87 1239.5,214.87Z"/>
            </g>
            <g transform="matrix(-0.297233,0,-0.162771,0.18872,1349.36,752.985)">
                <path d="M1288.69,541.953C1288.69,541.953 1300.82,530.878 1314.31,518.556C1320.76,512.669 1326.06,504.362 1327.88,497.293C1329.69,490.225 1327.69,485.693 1322.75,485.693L1322.15,485.693C1318.48,485.693 1313.62,488.21 1308.82,492.589C1300.62,500.073 1288.69,510.969 1288.69,510.969L1288.69,492.589C1288.69,488.21 1286.58,485.693 1282.91,485.693L1282.31,485.693C1277.37,485.693 1270.41,490.225 1264.48,497.293C1258.55,504.362 1254.75,512.669 1254.75,518.556L1254.75,541.953C1254.75,541.953 1242.62,553.029 1229.13,565.351C1222.68,571.238 1217.38,579.545 1215.57,586.614C1213.75,593.682 1215.75,598.214 1220.69,598.214L1221.29,598.214C1224.96,598.214 1229.83,595.697 1234.62,591.318C1242.82,583.834 1254.75,572.938 1254.75,572.938L1254.75,591.318C1254.75,595.697 1256.86,598.214 1260.54,598.214L1261.13,598.214C1266.07,598.214 1273.04,593.682 1278.96,586.614C1284.89,579.545 1288.69,571.238 1288.69,565.351L1288.69,541.953Z" style="fill:rgb(255,0,0);"/>
            </g>
        </g>
    </g>
</svg>
