<?xml version="1.0" encoding="UTF-8" standalone="no"?>
<!DOCTYPE svg PUBLIC "-//W3C//DTD SVG 1.1//EN" "http://www.w3.org/Graphics/SVG/1.1/DTD/svg11.dtd">
<svg width="100%" height="100%" viewBox="0 0 180 187" version="1.1" xmlns="http://www.w3.org/2000/svg" xmlns:xlink="http://www.w3.org/1999/xlink" xml:space="preserve" xmlns:serif="http://www.serif.com/" style="fill-rule:evenodd;clip-rule:evenodd;stroke-linejoin:round;stroke-miterlimit:2;">
    <g transform="matrix(1,0,0,1,-870,-231)">
        <g id="vet-error">
            <g transform="matrix(2.50808,0,0,2.50808,-4001.73,-1006.06)">
                <path d="M1981.12,567.775L1942.62,567.775L1942.62,498.669L1962.57,518.618L1962.57,493.42L1991.13,521.978L2013.97,521.978C2013.72,523.14 2013.43,524.288 2013.1,525.418C2013.05,525.595 2013,525.771 2012.94,525.946C2012.36,527.855 2011.67,529.716 2010.87,531.521C2009.85,533.832 2008.66,536.052 2007.31,538.164C2004.09,543.22 1999.99,547.659 1995.21,551.261C1993,552.928 1990.65,554.416 1988.18,555.702C1985.96,556.857 1983.65,557.85 1981.25,558.665C1981.21,558.68 1981.16,558.695 1981.12,558.71L1981.12,567.775ZM1982.92,528.72C1982.77,527.351 1982.11,526.138 1981.12,525.286C1980.2,524.494 1979,524.015 1977.69,524.015C1975.04,524.015 1972.85,525.986 1972.49,528.542C1972.46,528.778 1972.44,529.019 1972.44,529.264C1972.44,531.978 1974.51,534.213 1977.15,534.486C1977.33,534.504 1977.51,534.514 1977.69,534.514C1977.94,534.514 1978.18,534.497 1978.42,534.465C1979.44,534.323 1980.37,533.886 1981.12,533.242C1982.24,532.279 1982.94,530.854 1982.94,529.264C1982.94,529.08 1982.93,528.899 1982.92,528.72Z"/>
            </g>
            <g transform="matrix(-0.61217,0,-0.335236,0.388679,1989.56,42.6992)">
                <path d="M1288.69,541.953C1288.69,541.953 1300.82,530.878 1314.31,518.556C1320.76,512.669 1326.06,504.362 1327.88,497.293C1329.69,490.225 1327.69,485.693 1322.75,485.693L1322.15,485.693C1318.48,485.693 1313.62,488.21 1308.82,492.589C1300.62,500.073 1288.69,510.969 1288.69,510.969L1288.69,492.589C1288.69,488.21 1286.58,485.693 1282.91,485.693L1282.31,485.693C1277.37,485.693 1270.41,490.225 1264.48,497.293C1258.55,504.362 1254.75,512.669 1254.75,518.556L1254.75,541.953C1254.75,541.953 1242.62,553.029 1229.13,565.351C1222.68,571.238 1217.38,579.545 1215.57,586.614C1213.75,593.682 1215.75,598.214 1220.69,598.214L1221.29,598.214C1224.96,598.214 1229.83,595.697 1234.62,591.318C1242.82,583.834 1254.75,572.938 1254.75,572.938L1254.75,591.318C1254.75,595.697 1256.86,598.214 1260.54,598.214L1261.13,598.214C1266.07,598.214 1273.04,593.682 1278.96,586.614C1284.89,579.545 1288.69,571.238 1288.69,565.351L1288.69,541.953Z" style="fill:rgb(255,0,0);"/>
            </g>
        </g>
    </g>
</svg>
