<?xml version="1.0" encoding="UTF-8" standalone="no"?>
<!DOCTYPE svg PUBLIC "-//W3C//DTD SVG 1.1//EN" "http://www.w3.org/Graphics/SVG/1.1/DTD/svg11.dtd">
<svg width="100%" height="100%" viewBox="0 0 81 58" version="1.1" xmlns="http://www.w3.org/2000/svg" xmlns:xlink="http://www.w3.org/1999/xlink" xml:space="preserve" xmlns:serif="http://www.serif.com/" style="fill-rule:evenodd;clip-rule:evenodd;stroke-linejoin:round;stroke-miterlimit:2;">
    <g transform="matrix(1,0,0,1,-28554,-23239)">
        <g transform="matrix(0.17397,0,0,0.168544,26941.2,22755.1)">
            <g id="vetcamp_iso_p">
                <path d="M9432.23,3210.11C9420.93,3210.11 9410.09,3205.62 9402.09,3197.63L9313.55,3109.08L9313.56,3109.06C9312.95,3108.47 9312.34,3107.87 9311.73,3107.26C9258.61,3054.14 9258.61,2967.88 9311.73,2914.75C9364.86,2861.63 9451.12,2861.63 9504.24,2914.75L9504.3,2914.81C9505.32,2915.83 9506.95,2915.87 9508.02,2914.91C9561.44,2867.13 9643.64,2868.89 9694.94,2920.19C9746.85,2972.1 9748.04,3055.65 9698.5,3109.01L9698.57,3109.08L9610.02,3197.63C9602.03,3205.62 9591.19,3210.11 9579.89,3210.11L9432.23,3210.11ZM9394.85,3061.14C9403.7,3112.94 9448.82,3152.37 9503.14,3152.37C9558.5,3152.37 9604.3,3111.42 9611.91,3058.15C9612.49,3054.23 9611.33,3050.24 9608.73,3047.24C9606.14,3044.24 9602.37,3042.51 9598.4,3042.51C9598.4,3042.51 9598.4,3042.51 9598.4,3042.52C9591.53,3042.52 9585.7,3047.55 9584.69,3054.34C9578.95,3094.24 9544.63,3124.91 9503.14,3124.91C9460.72,3124.91 9425.79,3092.86 9421.26,3051.65C9420.67,3046.44 9416.27,3042.51 9411.03,3042.51C9410.86,3042.51 9410.7,3042.51 9410.53,3042.51C9405.84,3042.51 9401.38,3044.59 9398.36,3048.18C9395.34,3051.77 9394.05,3056.52 9394.85,3061.14Z" style="fill:#ffe900;"/>
            </g>
        </g>
    </g>
</svg>
