<?xml version="1.0" encoding="UTF-8" standalone="no"?>
<!DOCTYPE svg PUBLIC "-//W3C//DTD SVG 1.1//EN" "http://www.w3.org/Graphics/SVG/1.1/DTD/svg11.dtd">
<svg width="100%" height="100%" viewBox="0 0 202 144" version="1.1" xmlns="http://www.w3.org/2000/svg" xmlns:xlink="http://www.w3.org/1999/xlink" xml:space="preserve" xmlns:serif="http://www.serif.com/" style="fill-rule:evenodd;clip-rule:evenodd;stroke-linejoin:round;stroke-miterlimit:2;">
    <g transform="matrix(1,0,0,1,-29813,-23196)">
        <g id="vetcamp_full_ver_w" transform="matrix(1,0,0,1,1664.62,370.269)">
            <path d="M28171.5,22837L28175.4,22866.8L28179.1,22837L28201.7,22837L28188.3,22889.3L28162.4,22889.3L28148.9,22837L28171.5,22837ZM28225.1,22835.9C28230,22835.9 28234.2,22836.7 28237.7,22838.4C28241.2,22840 28244.1,22842.1 28246.1,22844.8C28248.3,22847.4 28249.7,22850.5 28250.3,22854.1C28251,22857.6 28250.8,22861.3 28249.9,22865.2L28218.8,22865.2C28218.8,22866.3 28219.3,22867.1 28220.5,22867.6C28221.6,22868.1 28223.1,22868.4 28225,22868.4L28248.9,22868.4L28248.9,22889.3L28225,22889.3C28221,22889.3 28217.4,22888.7 28214,22887.5C28210.7,22886.3 28207.9,22884.6 28205.4,22882.3C28203,22880.1 28201.1,22877.3 28199.8,22874.1C28198.4,22870.9 28197.8,22867.2 28197.8,22863.2C28197.8,22859.2 28198.4,22855.6 28199.7,22852.3C28201.1,22848.9 28202.9,22846 28205.3,22843.6C28207.7,22841.2 28210.6,22839.3 28214,22838C28217.3,22836.6 28221,22835.9 28225.1,22835.9ZM28218.5,22857.9L28231.6,22857.9C28231,22856.8 28230.1,22855.8 28228.9,22855.2C28227.8,22854.5 28226.5,22854.2 28225,22854.2C28223.5,22854.2 28222.2,22854.5 28221,22855.2C28219.9,22855.8 28219.1,22856.8 28218.5,22857.9ZM28273.2,22826.5L28273.2,22837L28280.2,22837L28280.2,22857.9L28273.3,22857.9L28273.3,22865C28273.3,22866.2 28273.7,22867 28274.4,22867.6C28275,22868.2 28275.9,22868.5 28276.8,22868.5L28280.1,22868.6L28280.1,22889.3L28273.9,22889.3C28271.1,22889.3 28268.4,22888.9 28265.8,22888.1C28263.2,22887.4 28260.9,22886.1 28258.9,22884.5C28257,22882.8 28255.4,22880.7 28254.2,22878.2C28253.1,22875.7 28252.5,22872.7 28252.5,22869.2L28252.5,22826.5L28273.2,22826.5ZM28150,22925.2C28150,22921.2 28150.6,22917.7 28151.9,22914.5C28153.3,22911.2 28155.1,22908.4 28157.5,22906.1C28159.9,22903.9 28162.7,22902.1 28166.1,22900.9C28169.4,22899.7 28173.1,22899 28177.2,22899C28178.9,22899 28179.9,22899 28180.2,22899L28180.5,22899C28180.6,22899 28180.5,22899 28180.2,22899L28180.2,22919.1L28177.2,22919.1C28175.4,22919.1 28174,22919.6 28172.8,22920.6C28171.8,22921.6 28171.2,22923 28171.2,22924.8C28171.2,22926.6 28171.8,22928 28172.8,22929C28174,22930 28175.4,22930.4 28177.2,22930.4L28180.2,22930.4L28180.2,22951.4L28177.2,22951.4C28173.1,22951.4 28169.4,22950.8 28166.1,22949.5C28162.7,22948.2 28159.9,22946.5 28157.5,22944.2C28155.1,22941.9 28153.3,22939.2 28151.9,22936C28150.6,22932.7 28150,22929.1 28150,22925.2ZM28197.1,22922.8L28208,22922.8C28208,22921.6 28207.3,22920.9 28205.9,22920.5C28204.5,22920.2 28202.4,22920 28199.7,22920L28185.9,22920L28191,22899L28208,22899C28211.1,22899 28213.9,22899.4 28216.5,22900.1C28219,22900.8 28221.2,22901.9 28223,22903.4C28224.9,22904.8 28226.3,22906.8 28227.3,22909.1C28228.3,22911.4 28228.8,22914.2 28228.8,22917.5L28228.8,22951.4L28196.3,22951.4C28193.6,22951.4 28191.2,22951 28189.3,22950.2C28187.5,22949.4 28185.9,22948.3 28184.8,22946.9C28183.7,22945.6 28182.9,22944.1 28182.3,22942.4C28181.8,22940.7 28181.6,22938.9 28181.6,22937.1C28181.6,22935.4 28181.8,22933.7 28182.3,22932C28182.9,22930.3 28183.7,22928.7 28184.9,22927.4C28186.2,22926 28187.8,22924.9 28189.7,22924.1C28191.7,22923.2 28194.2,22922.8 28197.1,22922.8ZM28203.1,22932.1C28203.1,22932.8 28203.4,22933.2 28203.8,22933.5C28204.3,22933.7 28204.9,22933.9 28205.5,22933.9L28208,22933.9L28208,22930.3L28205.5,22930.3C28204.9,22930.3 28204.3,22930.4 28203.8,22930.7C28203.4,22931 28203.1,22931.5 28203.1,22932.1ZM28230.9,22899L28255.1,22899C28257.5,22899 28259.7,22899.3 28261.9,22899.9C28264.1,22900.4 28266.1,22901.2 28267.9,22902.3C28268.9,22901.5 28270.4,22900.8 28272.2,22900.1C28274,22899.4 28276.4,22899 28279.4,22899C28282.3,22899 28285,22899.4 28287.5,22900.2C28290.2,22901 28292.4,22902.2 28294.4,22903.9C28296.3,22905.5 28297.9,22907.6 28299.1,22910.2C28300.2,22912.7 28300.8,22915.7 28300.8,22919.1L28300.8,22951.4L28280.1,22951.4L28280.1,22924C28280.1,22922.8 28280,22921.8 28279.8,22921C28279.7,22920.2 28279.1,22919.8 28278,22919.8L28276.5,22919.8L28276.5,22951.4L28255.8,22951.4L28255.8,22924C28255.8,22922.8 28255.7,22921.8 28255.5,22921C28255.4,22920.2 28254.8,22919.8 28253.7,22919.8L28252.2,22919.8L28252.2,22951.4L28230.9,22951.4L28230.9,22899ZM28302.9,22968.8L28302.9,22899L28323.8,22899C28327.4,22899 28330.8,22899.6 28333.9,22900.8C28337,22902 28339.7,22903.7 28342.1,22906C28344.4,22908.2 28346.3,22911 28347.7,22914.2C28349,22917.5 28349.7,22921.1 28349.7,22925.2C28349.7,22929.3 28349.1,22932.9 28348,22936.2C28346.9,22939.4 28345.3,22942.1 28343.1,22944.4C28341,22946.7 28338.3,22948.4 28335.1,22949.6C28331.9,22950.8 28328.1,22951.5 28323.8,22951.5L28323.8,22968.8L28302.9,22968.8ZM28323.8,22931.1C28325.2,22931.1 28326.3,22930.5 28327.1,22929.3C28327.8,22928 28328.2,22926.7 28328.2,22925.5C28328.2,22923.9 28327.8,22922.6 28326.9,22921.4C28326.1,22920.3 28325.1,22919.8 28323.8,22919.8L28323.8,22931.1Z" style="fill:#fff;"/>
        </g>
    </g>
</svg>
