<?xml version="1.0" encoding="UTF-8" standalone="no"?>
<!DOCTYPE svg PUBLIC "-//W3C//DTD SVG 1.1//EN" "http://www.w3.org/Graphics/SVG/1.1/DTD/svg11.dtd">
<svg width="100%" height="100%" viewBox="0 0 774 178" version="1.1" xmlns="http://www.w3.org/2000/svg" xmlns:xlink="http://www.w3.org/1999/xlink" xml:space="preserve" xmlns:serif="http://www.serif.com/" style="fill-rule:evenodd;clip-rule:evenodd;stroke-linejoin:round;stroke-miterlimit:2;">
    <g transform="matrix(1,0,0,1,-3561,-451)">
        <g transform="matrix(5.74086,0,0,5.74086,-1563.28,-4086.95)">
            <g transform="matrix(0.658923,0,0,0.658923,151.825,606.601)">
                <path d="M1169.39,294.7L1180.96,318.029L1192.53,294.7L1186.15,294.7L1180.96,307.421L1175.77,294.7L1169.39,294.7Z" style="fill:white;fill-rule:nonzero;"/>
                <path d="M1201.99,316.284C1204.53,316.284 1206.71,315.786 1208.54,314.791C1210.36,313.796 1211.82,312.304 1212.92,310.314L1207.73,308.707C1207.12,309.717 1206.35,310.475 1205.41,310.98C1204.48,311.485 1203.36,311.737 1202.04,311.737C1200.88,311.737 1199.88,311.477 1199.05,310.957C1198.23,310.436 1197.61,309.686 1197.19,308.707C1196.78,307.727 1196.57,306.533 1196.57,305.125C1196.61,303.655 1196.83,302.423 1197.24,301.428C1197.65,300.433 1198.25,299.683 1199.03,299.178C1199.81,298.672 1200.78,298.42 1201.95,298.42C1202.9,298.42 1203.72,298.634 1204.43,299.063C1205.13,299.491 1205.67,300.073 1206.06,300.808C1206.44,301.543 1206.63,302.43 1206.63,303.471C1206.63,303.686 1206.58,303.954 1206.47,304.275C1206.36,304.596 1206.25,304.849 1206.13,305.033L1207.73,302.92L1194,302.92L1194,306.594L1212.92,306.594C1212.95,306.41 1212.98,306.165 1212.99,305.859C1213.01,305.553 1213.01,305.262 1213.01,304.987C1213.01,302.721 1212.59,300.785 1211.73,299.178C1210.87,297.57 1209.62,296.346 1207.99,295.504C1206.35,294.662 1204.37,294.241 1202.04,294.241C1199.71,294.241 1197.69,294.692 1195.98,295.596C1194.26,296.499 1192.94,297.769 1192.01,299.407C1191.07,301.045 1190.6,302.997 1190.6,305.262C1190.6,307.497 1191.07,309.434 1192.01,311.072C1192.94,312.709 1194.26,313.988 1195.98,314.906C1197.69,315.825 1199.7,316.284 1201.99,316.284Z" style="fill:white;fill-rule:nonzero;"/>
                <path d="M1213.06,294.7L1213.06,299.706L1226.1,299.706L1226.1,294.7L1213.06,294.7ZM1216.69,287.352L1216.69,315.825L1222.43,315.825L1222.43,287.352L1216.69,287.352Z" style="fill:white;fill-rule:nonzero;"/>
                <path d="M1232.3,305.262C1232.3,304.068 1232.58,303.012 1233.13,302.094C1233.68,301.175 1234.42,300.448 1235.36,299.912C1236.29,299.377 1237.32,299.109 1238.46,299.109C1239.31,299.109 1240.17,299.246 1241.03,299.522C1241.88,299.797 1242.67,300.188 1243.39,300.693C1244.11,301.198 1244.65,301.787 1245.02,302.461L1245.02,296.353C1244.29,295.71 1243.33,295.198 1242.15,294.815C1240.97,294.432 1239.6,294.241 1238.04,294.241C1235.81,294.241 1233.79,294.7 1232,295.619C1230.21,296.537 1228.8,297.823 1227.78,299.476C1226.75,301.129 1226.24,303.058 1226.24,305.262C1226.24,307.436 1226.75,309.357 1227.78,311.026C1228.8,312.694 1230.21,313.988 1232,314.906C1233.79,315.825 1235.81,316.284 1238.04,316.284C1239.6,316.284 1240.97,316.092 1242.15,315.71C1243.33,315.327 1244.29,314.799 1245.02,314.125L1245.02,308.018C1244.65,308.691 1244.13,309.281 1243.44,309.786C1242.75,310.291 1241.98,310.689 1241.12,310.98C1240.26,311.271 1239.37,311.416 1238.46,311.416C1237.32,311.416 1236.29,311.156 1235.36,310.635C1234.42,310.115 1233.68,309.395 1233.13,308.477C1232.58,307.558 1232.3,306.487 1232.3,305.262Z" style="fill:white;fill-rule:nonzero;"/>
                <path d="M1263.81,294.7L1263.81,315.825L1269.64,315.825L1269.64,294.7L1263.81,294.7ZM1246.31,305.262C1246.31,307.589 1246.78,309.579 1247.73,311.232C1248.68,312.886 1249.94,314.141 1251.5,314.998C1253.06,315.855 1254.71,316.284 1256.46,316.284C1258.23,316.284 1259.8,315.84 1261.16,314.952C1262.53,314.064 1263.6,312.794 1264.38,311.14C1265.16,309.487 1265.55,307.528 1265.55,305.262C1265.55,302.966 1265.16,300.999 1264.38,299.361C1263.6,297.723 1262.53,296.46 1261.16,295.573C1259.8,294.685 1258.23,294.241 1256.46,294.241C1254.71,294.241 1253.06,294.669 1251.5,295.527C1249.94,296.384 1248.68,297.631 1247.73,299.269C1246.78,300.907 1246.31,302.905 1246.31,305.262ZM1252.46,305.262C1252.46,304.007 1252.72,302.92 1253.24,302.002C1253.76,301.083 1254.47,300.379 1255.36,299.889C1256.24,299.399 1257.19,299.155 1258.2,299.155C1259.09,299.155 1259.95,299.392 1260.8,299.866C1261.64,300.341 1262.33,301.037 1262.86,301.956C1263.4,302.874 1263.67,303.976 1263.67,305.262C1263.67,306.548 1263.4,307.65 1262.86,308.569C1262.33,309.487 1261.64,310.184 1260.8,310.658C1259.95,311.133 1259.09,311.37 1258.2,311.37C1257.19,311.37 1256.24,311.125 1255.36,310.635C1254.47,310.145 1253.76,309.441 1253.24,308.523C1252.72,307.604 1252.46,306.518 1252.46,305.262Z" style="fill:white;fill-rule:nonzero;"/>
                <path d="M1303.16,302.323C1303.16,300.609 1302.92,299.147 1302.45,297.938C1301.98,296.728 1301.25,295.81 1300.27,295.182C1299.29,294.555 1298.02,294.241 1296.46,294.241C1295.02,294.241 1293.74,294.547 1292.62,295.159C1291.5,295.772 1290.56,296.675 1289.8,297.869C1289.34,296.675 1288.6,295.772 1287.59,295.159C1286.58,294.547 1285.3,294.241 1283.74,294.241C1282.33,294.241 1281.12,294.547 1280.11,295.159C1279.1,295.772 1278.29,296.659 1277.67,297.823L1277.67,294.7L1271.93,294.7L1271.93,315.825L1277.67,315.825L1277.67,302.966C1277.67,302.048 1277.83,301.259 1278.13,300.601C1278.44,299.943 1278.87,299.453 1279.42,299.132C1279.97,298.81 1280.61,298.649 1281.35,298.649C1282.45,298.649 1283.25,299.009 1283.74,299.729C1284.23,300.448 1284.47,301.527 1284.47,302.966L1284.47,315.825L1290.39,315.825L1290.39,302.966C1290.39,302.048 1290.55,301.259 1290.85,300.601C1291.16,299.943 1291.59,299.453 1292.14,299.132C1292.69,298.81 1293.33,298.649 1294.07,298.649C1295.17,298.649 1295.97,299.009 1296.46,299.729C1296.95,300.448 1297.19,301.527 1297.19,302.966L1297.19,315.825L1303.16,315.825L1303.16,302.323Z" style="fill:white;fill-rule:nonzero;"/>
                <path d="M1311.24,325.928L1311.24,294.7L1305.27,294.7L1305.27,325.928L1311.24,325.928ZM1328.6,305.262C1328.6,302.844 1328.13,300.8 1327.18,299.132C1326.23,297.463 1324.98,296.2 1323.44,295.343C1321.89,294.486 1320.23,294.057 1318.45,294.057C1316.65,294.057 1315.08,294.516 1313.75,295.435C1312.41,296.353 1311.39,297.647 1310.67,299.315C1309.95,300.984 1309.59,302.966 1309.59,305.262C1309.59,307.528 1309.95,309.503 1310.67,311.186C1311.39,312.87 1312.41,314.171 1313.75,315.09C1315.08,316.008 1316.65,316.468 1318.45,316.468C1320.23,316.468 1321.89,316.039 1323.44,315.182C1324.98,314.324 1326.23,313.054 1327.18,311.37C1328.13,309.686 1328.6,307.65 1328.6,305.262ZM1322.45,305.262C1322.45,306.518 1322.19,307.589 1321.67,308.477C1321.15,309.365 1320.45,310.038 1319.58,310.498C1318.71,310.957 1317.75,311.186 1316.71,311.186C1315.82,311.186 1314.96,310.964 1314.11,310.52C1313.27,310.077 1312.58,309.411 1312.05,308.523C1311.51,307.635 1311.24,306.548 1311.24,305.262C1311.24,303.976 1311.51,302.89 1312.05,302.002C1312.58,301.114 1313.27,300.448 1314.11,300.004C1314.96,299.56 1315.82,299.338 1316.71,299.338C1317.75,299.338 1318.71,299.568 1319.58,300.027C1320.45,300.486 1321.15,301.16 1321.67,302.048C1322.19,302.936 1322.45,304.007 1322.45,305.262Z" style="fill:white;fill-rule:nonzero;"/>
            </g>
            <g transform="matrix(0.356831,0,0,0.356831,199.542,614.506)">
                <path d="M1981.12,567.775L1942.62,567.775L1942.62,498.669L1962.57,518.618L1962.57,493.42L1991.13,521.978L2013.97,521.978C2013.72,523.14 2013.43,524.288 2013.1,525.418C2013.05,525.595 2013,525.771 2012.94,525.946C2012.36,527.855 2011.67,529.716 2010.87,531.521C2009.85,533.832 2008.66,536.052 2007.31,538.164C2004.09,543.22 1999.99,547.659 1995.21,551.261C1993,552.928 1990.65,554.416 1988.18,555.702C1985.96,556.857 1983.65,557.85 1981.25,558.665C1981.21,558.68 1981.16,558.695 1981.12,558.71L1981.12,567.775ZM1982.92,528.72C1982.77,527.351 1982.11,526.138 1981.12,525.286C1980.2,524.494 1979,524.015 1977.69,524.015C1975.04,524.015 1972.85,525.986 1972.49,528.542C1972.46,528.778 1972.44,529.019 1972.44,529.264C1972.44,531.978 1974.51,534.213 1977.15,534.486C1977.33,534.504 1977.51,534.514 1977.69,534.514C1977.94,534.514 1978.18,534.497 1978.42,534.465C1979.44,534.323 1980.37,533.886 1981.12,533.242C1982.24,532.279 1982.94,530.854 1982.94,529.264C1982.94,529.08 1982.93,528.899 1982.92,528.72Z" style="fill:white;"/>
            </g>
        </g>
    </g>
</svg>
