<?xml version="1.0" encoding="UTF-8" standalone="no"?>
<!DOCTYPE svg PUBLIC "-//W3C//DTD SVG 1.1//EN" "http://www.w3.org/Graphics/SVG/1.1/DTD/svg11.dtd">
<svg width="100%" height="100%" viewBox="0 0 211 144" version="1.1" xmlns="http://www.w3.org/2000/svg" xmlns:xlink="http://www.w3.org/1999/xlink" xml:space="preserve" xmlns:serif="http://www.serif.com/" style="fill-rule:evenodd;clip-rule:evenodd;stroke-linejoin:round;stroke-miterlimit:2;">
    <g transform="matrix(1,0,0,1,-486,-468)">
        <g id="vetcamp-full-black" transform="matrix(1,0,0,1,-29007.3,-63996.7)">
            <path d="M29515,64476C29515.6,64476 29516.2,64476.6 29516.3,64477.2L29520,64505.9L29523.6,64477.2C29523.7,64476.6 29524.3,64476 29525,64476L29544.6,64476C29545,64476 29545.4,64476.2 29545.7,64476.6C29546,64476.9 29546.1,64477.3 29546,64477.8L29533.2,64527.4C29533,64528 29532.5,64528.4 29531.9,64528.4L29508.1,64528.4C29507.5,64528.4 29506.9,64528 29506.8,64527.4L29494,64477.8C29493.9,64477.3 29494,64476.9 29494.2,64476.6C29494.5,64476.2 29494.9,64476 29495.3,64476L29515,64476ZM29569.7,64475C29574.6,64475 29578.8,64475.8 29582.3,64477.4C29585.9,64479 29588.7,64481.2 29590.8,64483.8C29592.9,64486.5 29594.3,64489.6 29595,64493.2C29595.6,64496.4 29595.5,64499.7 29594.8,64503.2C29594.7,64503.9 29594.1,64504.3 29593.5,64504.3C29587.9,64504.3 29563.4,64504.3 29563.4,64504.3C29563.4,64505.4 29564,64506.2 29565.1,64506.7C29566.2,64507.2 29567.7,64507.5 29569.6,64507.5L29592.1,64507.5C29592.5,64507.5 29592.9,64507.6 29593.1,64507.9C29593.4,64508.1 29593.5,64508.5 29593.5,64508.8L29593.5,64527C29593.5,64527.4 29593.4,64527.7 29593.1,64528C29592.9,64528.3 29592.5,64528.4 29592.1,64528.4L29569.6,64528.4C29565.7,64528.4 29562,64527.8 29558.7,64526.6C29555.4,64525.4 29552.5,64523.6 29550.1,64521.4C29547.7,64519.1 29545.8,64516.4 29544.4,64513.2C29543.1,64509.9 29542.4,64506.3 29542.4,64502.2C29542.4,64498.3 29543.1,64494.6 29544.4,64491.3C29545.7,64488 29547.6,64485.1 29550,64482.7C29552.4,64480.3 29555.3,64478.4 29558.6,64477C29562,64475.7 29565.7,64475 29569.7,64475ZM29563.1,64497L29576.2,64497C29575.6,64495.8 29574.7,64494.9 29573.6,64494.3C29572.4,64493.6 29571.1,64493.3 29569.6,64493.3C29568.1,64493.3 29566.8,64493.6 29565.7,64494.3C29564.6,64494.9 29563.7,64495.8 29563.1,64497ZM29616.5,64465.6C29617.3,64465.6 29617.9,64466.2 29617.9,64466.9L29617.9,64476L29623.5,64476C29623.8,64476 29624.2,64476.2 29624.5,64476.4C29624.7,64476.7 29624.9,64477.1 29624.9,64477.4L29624.9,64495.6C29624.9,64496.4 29624.2,64497 29623.5,64497L29618.4,64497C29618.3,64497 29618.2,64497 29618.1,64497.1C29618,64497.2 29617.9,64497.3 29617.9,64497.5L29617.9,64504.1C29617.9,64505.2 29618.3,64506.1 29619,64506.7C29619.7,64507.3 29620.5,64507.6 29621.4,64507.6L29623.4,64507.6C29624.2,64507.7 29624.8,64508.3 29624.8,64509L29624.8,64527C29624.8,64527.8 29624.2,64528.4 29623.4,64528.4L29618.6,64528.4C29615.7,64528.4 29613,64528 29610.4,64527.2C29607.8,64526.4 29605.5,64525.2 29603.6,64523.6C29601.6,64521.9 29600,64519.8 29598.9,64517.3C29597.7,64514.7 29597.1,64511.7 29597.1,64508.3L29597.1,64466.9C29597.1,64466.2 29597.8,64465.6 29598.5,64465.6L29616.5,64465.6ZM29494.6,64564.3C29494.6,64560.3 29495.3,64556.7 29496.6,64553.5C29497.9,64550.3 29499.8,64547.5 29502.1,64545.2C29504.5,64542.9 29507.4,64541.2 29510.7,64540C29514.1,64538.7 29517.8,64538.1 29521.8,64538.1C29523.4,64538.1 29524.3,64538.1 29524.7,64538C29524.8,64538 29524.8,64538 29524.9,64538C29525,64538 29525.1,64538 29525.1,64538C29525.1,64538 29525.1,64538 29525.1,64538C29525.2,64538.1 29525.1,64538.1 29525,64538.1C29524.9,64538.1 29524.9,64538.2 29524.9,64538.3C29524.8,64540.4 29524.9,64558.2 29524.9,64558.2L29521.8,64558.2C29520,64558.2 29518.6,64558.7 29517.5,64559.7C29516.4,64560.6 29515.9,64562 29515.9,64563.9C29515.9,64565.7 29516.4,64567.1 29517.5,64568C29518.6,64569 29520,64569.5 29521.8,64569.5L29524.9,64569.5L29524.8,64589.1C29524.8,64589.8 29524.2,64590.5 29523.5,64590.5L29521.8,64590.5C29517.8,64590.5 29514.1,64589.8 29510.7,64588.6C29507.4,64587.3 29504.5,64585.5 29502.1,64583.3C29499.8,64581 29497.9,64578.2 29496.6,64575C29495.3,64571.8 29494.6,64568.2 29494.6,64564.3ZM29541.8,64561.8L29552.7,64561.8C29552.7,64560.7 29552,64559.9 29550.6,64559.6C29549.2,64559.2 29547.1,64559 29544.3,64559L29532.3,64559C29531.9,64559 29531.5,64558.8 29531.2,64558.5C29531,64558.2 29530.9,64557.8 29531,64557.3L29535.4,64539.1C29535.5,64538.5 29536.1,64538.1 29536.7,64538.1L29552.7,64538.1C29555.7,64538.1 29558.6,64538.4 29561.1,64539.1C29563.7,64539.8 29565.9,64540.9 29567.7,64542.4C29569.6,64543.9 29571,64545.8 29572,64548.2C29573,64550.5 29573.5,64553.3 29573.5,64556.6L29573.5,64589.1C29573.5,64589.5 29573.3,64589.8 29573.1,64590.1C29572.8,64590.3 29572.5,64590.5 29572.1,64590.5L29540.9,64590.5C29538.2,64590.5 29535.9,64590.1 29534,64589.2C29532.1,64588.4 29530.6,64587.3 29529.5,64586C29528.3,64584.6 29527.5,64583.1 29527,64581.4C29526.5,64579.7 29526.2,64578 29526.2,64576.2C29526.2,64574.5 29526.5,64572.8 29527,64571.1C29527.5,64569.3 29528.4,64567.8 29529.6,64566.4C29530.8,64565.1 29532.4,64564 29534.4,64563.1C29536.4,64562.3 29538.9,64561.8 29541.8,64561.8ZM29547.8,64571.2C29547.8,64571.8 29548,64572.3 29548.5,64572.6C29549,64572.8 29549.5,64572.9 29550.2,64572.9L29552.7,64572.9L29552.7,64569.4L29550.2,64569.4C29549.5,64569.4 29549,64569.5 29548.5,64569.8C29548,64570.1 29547.8,64570.5 29547.8,64571.2ZM29575.6,64540C29575.6,64538.9 29576.4,64538.1 29577.4,64538.1L29599.7,64538.1C29602.1,64538.1 29604.4,64538.4 29606.6,64538.9C29608.8,64539.4 29610.7,64540.3 29612.5,64541.4C29613.6,64540.6 29615,64539.8 29616.9,64539.1C29618.7,64538.4 29621.1,64538.1 29624,64538.1C29626.9,64538.1 29629.6,64538.5 29632.2,64539.3C29634.8,64540.1 29637.1,64541.3 29639,64543C29641,64544.6 29642.5,64546.7 29643.7,64549.2C29644.9,64551.8 29645.4,64554.8 29645.4,64558.2L29645.4,64589.1C29645.4,64589.8 29644.8,64590.5 29644.1,64590.5L29626.1,64590.5C29625.7,64590.5 29625.4,64590.3 29625.1,64590.1C29624.9,64589.8 29624.7,64589.5 29624.7,64589.1L29624.7,64563.1C29624.7,64561.9 29624.6,64560.9 29624.5,64560.1C29624.3,64559.3 29623.7,64558.9 29622.6,64558.9L29621.2,64558.9L29621.2,64589.1C29621.2,64589.8 29620.5,64590.5 29619.8,64590.5L29601.8,64590.5C29601.4,64590.5 29601.1,64590.3 29600.8,64590.1C29600.6,64589.8 29600.4,64589.5 29600.4,64589.1L29600.4,64563.1C29600.4,64561.9 29600.3,64560.9 29600.2,64560.1C29600,64559.3 29599.4,64558.9 29598.3,64558.9L29596.9,64558.9L29596.9,64589.1C29596.9,64589.8 29596.2,64590.5 29595.5,64590.5L29576.9,64590.5C29576.2,64590.5 29575.6,64589.8 29575.6,64589.1L29575.6,64540ZM29648.9,64607.9C29648.5,64607.9 29648.2,64607.8 29647.9,64607.5C29647.7,64607.3 29647.5,64606.9 29647.5,64606.5L29647.5,64539.5C29647.5,64539.1 29647.7,64538.8 29647.9,64538.5C29648.2,64538.2 29648.5,64538.1 29648.9,64538.1L29668.5,64538.1C29672.1,64538.1 29675.4,64538.7 29678.5,64539.9C29681.7,64541.1 29684.4,64542.8 29686.7,64545C29689.1,64547.3 29690.9,64550 29692.3,64553.3C29693.6,64556.5 29694.3,64560.2 29694.3,64564.3C29694.3,64568.3 29693.8,64572 29692.7,64575.2C29691.6,64578.4 29690,64581.2 29687.8,64583.5C29685.6,64585.8 29682.9,64587.5 29679.7,64588.7C29676.5,64589.9 29672.8,64590.5 29668.5,64590.5L29668.5,64606.5C29668.5,64606.9 29668.3,64607.3 29668.1,64607.5C29667.8,64607.8 29667.5,64607.9 29667.1,64607.9L29648.9,64607.9ZM29668.5,64570.2C29669.9,64570.2 29671,64569.6 29671.7,64568.3C29672.5,64567.1 29672.9,64565.8 29672.9,64564.6C29672.9,64563 29672.5,64561.6 29671.6,64560.5C29670.7,64559.4 29669.7,64558.8 29668.5,64558.8L29668.5,64570.2ZM29655.7,64529.2C29653.9,64529.2 29652.2,64528.5 29650.9,64527.2L29636.9,64513.6L29636.9,64513.6C29636.8,64513.5 29636.7,64513.4 29636.6,64513.4C29628.1,64505.2 29628.1,64491.9 29636.6,64483.8C29645,64475.6 29658.7,64475.6 29667.1,64483.8L29667.1,64483.8C29667.3,64483.9 29667.6,64483.9 29667.7,64483.8C29676.2,64476.4 29689.2,64476.7 29697.4,64484.6C29705.6,64492.6 29705.8,64505.4 29698,64513.6L29698,64513.6L29683.9,64527.2C29682.6,64528.5 29680.9,64529.2 29679.1,64529.2L29655.7,64529.2Z" style="fill:rgb(17,17,17);"/>
        </g>
    </g>
</svg>
