<?xml version="1.0" encoding="UTF-8" standalone="no"?>
<!DOCTYPE svg PUBLIC "-//W3C//DTD SVG 1.1//EN" "http://www.w3.org/Graphics/SVG/1.1/DTD/svg11.dtd">
<svg width="100%" height="100%" viewBox="0 0 83 54" version="1.1" xmlns="http://www.w3.org/2000/svg" xmlns:xlink="http://www.w3.org/1999/xlink" xml:space="preserve" xmlns:serif="http://www.serif.com/" style="fill-rule:evenodd;clip-rule:evenodd;stroke-linejoin:round;stroke-miterlimit:2;">
    <g transform="matrix(1,0,0,1,-548,-739)">
        <g id="vetcamp-full-black-small" transform="matrix(0.37179,0,0,0.37179,-10413.1,-23227.8)">
            <path d="M29504.2,64476C29504.9,64476 29505.5,64476.6 29505.6,64477.2L29509.2,64505.9L29512.9,64477.2C29512.9,64476.6 29513.5,64476 29514.2,64476L29533.9,64476C29534.3,64476 29534.7,64476.2 29534.9,64476.6C29535.2,64476.9 29535.3,64477.3 29535.2,64477.8L29522.4,64527.4C29522.3,64528 29521.7,64528.4 29521.1,64528.4L29497.3,64528.4C29496.7,64528.4 29496.2,64528 29496,64527.4L29483.2,64477.8C29483.1,64477.3 29483.2,64476.9 29483.5,64476.6C29483.7,64476.2 29484.1,64476 29484.6,64476L29504.2,64476ZM29561.9,64475C29566.8,64475 29571,64475.8 29574.5,64477.4C29578.1,64479 29580.9,64481.2 29583,64483.8C29585.1,64486.5 29586.5,64489.6 29587.2,64493.2C29587.8,64496.4 29587.7,64499.7 29587,64503.2C29586.9,64503.9 29586.3,64504.3 29585.7,64504.3C29580.1,64504.3 29555.6,64504.3 29555.6,64504.3C29555.6,64505.4 29556.2,64506.2 29557.3,64506.7C29558.4,64507.2 29559.9,64507.5 29561.8,64507.5L29584.3,64507.5C29584.7,64507.5 29585,64507.6 29585.3,64507.9C29585.6,64508.1 29585.7,64508.5 29585.7,64508.8L29585.7,64527C29585.7,64527.4 29585.6,64527.7 29585.3,64528C29585,64528.3 29584.7,64528.4 29584.3,64528.4L29561.8,64528.4C29557.9,64528.4 29554.2,64527.8 29550.9,64526.6C29547.6,64525.4 29544.7,64523.6 29542.3,64521.4C29539.9,64519.1 29538,64516.4 29536.6,64513.2C29535.3,64509.9 29534.6,64506.3 29534.6,64502.2C29534.6,64498.3 29535.3,64494.6 29536.6,64491.3C29537.9,64488 29539.8,64485.1 29542.2,64482.7C29544.6,64480.3 29547.4,64478.4 29550.8,64477C29554.1,64475.7 29557.8,64475 29561.9,64475ZM29555.3,64497L29568.4,64497C29567.8,64495.8 29566.9,64494.9 29565.8,64494.3C29564.6,64493.6 29563.3,64493.3 29561.8,64493.3C29560.3,64493.3 29559,64493.6 29557.9,64494.3C29556.7,64494.9 29555.9,64495.8 29555.3,64497ZM29611.9,64465.6C29612.7,64465.6 29613.3,64466.2 29613.3,64466.9L29613.3,64476L29618.9,64476C29619.2,64476 29619.6,64476.2 29619.8,64476.4C29620.1,64476.7 29620.2,64477.1 29620.2,64477.4L29620.2,64495.6C29620.2,64496.4 29619.6,64497 29618.9,64497L29613.8,64497C29613.7,64497 29613.6,64497 29613.5,64497.1C29613.4,64497.2 29613.3,64497.3 29613.3,64497.5L29613.3,64504.1C29613.3,64505.2 29613.7,64506.1 29614.4,64506.7C29615.1,64507.3 29615.9,64507.6 29616.8,64507.6L29618.8,64507.6C29619.6,64507.7 29620.2,64508.3 29620.2,64509L29620.2,64527C29620.2,64527.8 29619.6,64528.4 29618.8,64528.4L29614,64528.4C29611.1,64528.4 29608.4,64528 29605.8,64527.2C29603.2,64526.4 29600.9,64525.2 29599,64523.6C29597,64521.9 29595.4,64519.8 29594.3,64517.3C29593.1,64514.7 29592.5,64511.7 29592.5,64508.3L29592.5,64466.9C29592.5,64466.2 29593.1,64465.6 29593.9,64465.6L29611.9,64465.6ZM29484,64564.3C29484,64560.3 29484.6,64556.7 29486,64553.5C29487.3,64550.3 29489.1,64547.5 29491.5,64545.2C29493.9,64542.9 29496.7,64541.2 29500.1,64540C29503.4,64538.7 29507.1,64538.1 29511.2,64538.1C29512.7,64538.1 29513.7,64538.1 29514.1,64538C29514.1,64538 29514.2,64538 29514.3,64538C29514.4,64538 29514.4,64538 29514.5,64538C29514.5,64538 29514.5,64538 29514.5,64538C29514.5,64538.1 29514.5,64538.1 29514.4,64538.1C29514.3,64538.1 29514.2,64538.2 29514.2,64538.3C29514.2,64540.4 29514.3,64558.2 29514.3,64558.2L29511.2,64558.2C29509.4,64558.2 29508,64558.7 29506.9,64559.7C29505.8,64560.6 29505.3,64562 29505.3,64563.9C29505.3,64565.7 29505.8,64567.1 29506.9,64568C29508,64569 29509.4,64569.5 29511.2,64569.5L29514.3,64569.5L29514.2,64589.1C29514.2,64589.8 29513.6,64590.5 29512.8,64590.5L29511.2,64590.5C29507.1,64590.5 29503.4,64589.8 29500.1,64588.6C29496.7,64587.3 29493.9,64585.5 29491.5,64583.3C29489.1,64581 29487.3,64578.2 29486,64575C29484.6,64571.8 29484,64568.2 29484,64564.3ZM29533.7,64561.8L29544.6,64561.8C29544.6,64560.7 29543.9,64559.9 29542.5,64559.6C29541.1,64559.2 29539,64559 29536.2,64559L29524.2,64559C29523.8,64559 29523.4,64558.8 29523.1,64558.5C29522.9,64558.2 29522.8,64557.8 29522.9,64557.3L29527.3,64539.1C29527.5,64538.5 29528,64538.1 29528.6,64538.1L29544.6,64538.1C29547.7,64538.1 29550.5,64538.4 29553.1,64539.1C29555.6,64539.8 29557.8,64540.9 29559.6,64542.4C29561.5,64543.9 29562.9,64545.8 29563.9,64548.2C29564.9,64550.5 29565.4,64553.3 29565.4,64556.6L29565.4,64589.1C29565.4,64589.5 29565.3,64589.8 29565,64590.1C29564.7,64590.3 29564.4,64590.5 29564,64590.5L29532.9,64590.5C29530.1,64590.5 29527.8,64590.1 29525.9,64589.2C29524,64588.4 29522.5,64587.3 29521.4,64586C29520.3,64584.6 29519.4,64583.1 29518.9,64581.4C29518.4,64579.7 29518.1,64578 29518.1,64576.2C29518.1,64574.5 29518.4,64572.8 29518.9,64571.1C29519.4,64569.3 29520.3,64567.8 29521.5,64566.4C29522.8,64565.1 29524.4,64564 29526.3,64563.1C29528.3,64562.3 29530.8,64561.8 29533.7,64561.8ZM29539.7,64571.2C29539.7,64571.8 29540,64572.3 29540.4,64572.6C29540.9,64572.8 29541.4,64572.9 29542.1,64572.9L29544.6,64572.9L29544.6,64569.4L29542.1,64569.4C29541.4,64569.4 29540.9,64569.5 29540.4,64569.8C29540,64570.1 29539.7,64570.5 29539.7,64571.2ZM29570.2,64540C29570.2,64538.9 29571,64538.1 29572,64538.1L29594.3,64538.1C29596.7,64538.1 29599,64538.4 29601.2,64538.9C29603.4,64539.4 29605.4,64540.3 29607.1,64541.4C29608.2,64540.6 29609.6,64539.8 29611.5,64539.1C29613.3,64538.4 29615.7,64538.1 29618.6,64538.1C29621.5,64538.1 29624.3,64538.5 29626.8,64539.3C29629.4,64540.1 29631.7,64541.3 29633.6,64543C29635.6,64544.6 29637.2,64546.7 29638.3,64549.2C29639.5,64551.8 29640.1,64554.8 29640.1,64558.2L29640.1,64589.1C29640.1,64589.8 29639.5,64590.5 29638.7,64590.5L29620.7,64590.5C29620.3,64590.5 29620,64590.3 29619.7,64590.1C29619.5,64589.8 29619.3,64589.5 29619.3,64589.1L29619.3,64563.1C29619.3,64561.9 29619.3,64560.9 29619.1,64560.1C29618.9,64559.3 29618.3,64558.9 29617.2,64558.9L29615.8,64558.9L29615.8,64589.1C29615.8,64589.8 29615.2,64590.5 29614.4,64590.5L29596.4,64590.5C29596,64590.5 29595.7,64590.3 29595.4,64590.1C29595.2,64589.8 29595,64589.5 29595,64589.1L29595,64563.1C29595,64561.9 29595,64560.9 29594.8,64560.1C29594.6,64559.3 29594,64558.9 29592.9,64558.9L29591.5,64558.9L29591.5,64589.1C29591.5,64589.8 29590.9,64590.5 29590.1,64590.5L29571.6,64590.5C29570.8,64590.5 29570.2,64589.8 29570.2,64589.1L29570.2,64540ZM29645.4,64607.9C29645,64607.9 29644.6,64607.8 29644.4,64607.5C29644.1,64607.3 29644,64606.9 29644,64606.5L29644,64539.5C29644,64539.1 29644.1,64538.8 29644.4,64538.5C29644.6,64538.2 29645,64538.1 29645.4,64538.1L29664.9,64538.1C29668.5,64538.1 29671.9,64538.7 29675,64539.9C29678.1,64541.1 29680.8,64542.8 29683.2,64545C29685.5,64547.3 29687.4,64550 29688.7,64553.3C29690.1,64556.5 29690.8,64560.2 29690.8,64564.3C29690.8,64568.3 29690.2,64572 29689.1,64575.2C29688,64578.4 29686.4,64581.2 29684.2,64583.5C29682.1,64585.8 29679.4,64587.5 29676.2,64588.7C29673,64589.9 29669.2,64590.5 29664.9,64590.5L29664.9,64606.5C29664.9,64606.9 29664.8,64607.3 29664.5,64607.5C29664.3,64607.8 29663.9,64607.9 29663.6,64607.9L29645.4,64607.9ZM29664.9,64570.2C29666.3,64570.2 29667.4,64569.6 29668.2,64568.3C29668.9,64567.1 29669.3,64565.8 29669.3,64564.6C29669.3,64563 29668.9,64561.6 29668,64560.5C29667.2,64559.4 29666.1,64558.8 29664.9,64558.8L29664.9,64570.2ZM29654.7,64529.2C29652.9,64529.2 29651.1,64528.5 29649.9,64527.2L29635.8,64513.6C29635.7,64513.5 29635.6,64513.4 29635.5,64513.4C29627.1,64505.2 29627.1,64491.9 29635.5,64483.8C29644,64475.6 29657.7,64475.6 29666.1,64483.8L29666.1,64483.8C29666.3,64483.9 29666.5,64483.9 29666.7,64483.8C29675.2,64476.4 29688.2,64476.7 29696.3,64484.6C29704.6,64492.6 29704.8,64505.4 29696.9,64513.6L29696.9,64513.6L29682.9,64527.2C29681.6,64528.5 29679.9,64529.2 29678.1,64529.2L29654.7,64529.2Z" style="fill:rgb(17,17,17);"/>
        </g>
    </g>
</svg>
