<?xml version="1.0" encoding="UTF-8" standalone="no"?>
<!DOCTYPE svg PUBLIC "-//W3C//DTD SVG 1.1//EN" "http://www.w3.org/Graphics/SVG/1.1/DTD/svg11.dtd">
<svg width="100%" height="100%" viewBox="0 0 431 82" version="1.1" xmlns="http://www.w3.org/2000/svg" xmlns:xlink="http://www.w3.org/1999/xlink" xml:space="preserve" xmlns:serif="http://www.serif.com/" style="fill-rule:evenodd;clip-rule:evenodd;stroke-linejoin:round;stroke-miterlimit:2;">
    <g transform="matrix(1,0,0,1,-27445,-23227)">
        <g id="vetcamp_full_hoz_p" transform="matrix(1,0,0,1,-640.183,401.295)">
            <path d="M28113.4,22891.4C28111.4,22891.4 28109.5,22890.7 28108.1,22889.3L28092.7,22874.4L28092.7,22874.4C28092.6,22874.3 28092.5,22874.2 28092.4,22874.1C28083.2,22865.1 28083.2,22850.6 28092.4,22841.7C28101.7,22832.7 28116.7,22832.7 28125.9,22841.7L28125.9,22841.7C28126.1,22841.8 28126.4,22841.8 28126.6,22841.7C28135.9,22833.6 28150.2,22833.9 28159.1,22842.6C28168.1,22851.3 28168.3,22865.4 28159.7,22874.4L28159.7,22874.4L28144.3,22889.3C28142.9,22890.7 28141,22891.4 28139.1,22891.4L28113.4,22891.4ZM28106.9,22866.3C28108.4,22875.1 28116.3,22881.7 28125.7,22881.7C28135.3,22881.7 28143.3,22874.8 28144.6,22865.8C28144.7,22865.2 28144.5,22864.5 28144.1,22864C28143.6,22863.5 28143,22863.2 28142.3,22863.2C28142.3,22863.2 28142.3,22863.2 28142.3,22863.2C28141.1,22863.2 28140.1,22864 28139.9,22865.2C28138.9,22871.9 28132.9,22877.1 28125.7,22877.1C28118.3,22877.1 28112.3,22871.7 28111.5,22864.7C28111.4,22863.8 28110.6,22863.2 28109.7,22863.2C28109.7,22863.2 28109.6,22863.2 28109.6,22863.2C28108.8,22863.2 28108,22863.5 28107.5,22864.1C28107,22864.7 28106.7,22865.5 28106.9,22866.3ZM28205.2,22837L28209.1,22866.8L28212.9,22837L28235.5,22837L28222,22889.3L28196.1,22889.3L28182.6,22837L28205.2,22837ZM28258.8,22835.9C28263.7,22835.9 28267.9,22836.7 28271.4,22838.4C28275,22840 28277.8,22842.1 28279.9,22844.8C28282,22847.4 28283.4,22850.5 28284.1,22854.1C28284.7,22857.6 28284.6,22861.3 28283.6,22865.2L28252.5,22865.2C28252.5,22866.3 28253.1,22867.1 28254.2,22867.6C28255.3,22868.1 28256.8,22868.4 28258.7,22868.4L28282.6,22868.4L28282.6,22889.3L28258.7,22889.3C28254.8,22889.3 28251.1,22888.7 28247.8,22887.5C28244.5,22886.3 28241.6,22884.6 28239.2,22882.3C28236.8,22880.1 28234.9,22877.3 28233.5,22874.1C28232.2,22870.9 28231.5,22867.2 28231.5,22863.2C28231.5,22859.2 28232.1,22855.6 28233.5,22852.3C28234.8,22848.9 28236.7,22846 28239,22843.6C28241.5,22841.2 28244.3,22839.3 28247.7,22838C28251,22836.6 28254.7,22835.9 28258.8,22835.9ZM28252.2,22857.9L28265.3,22857.9C28264.7,22856.8 28263.8,22855.8 28262.6,22855.2C28261.5,22854.5 28260.2,22854.2 28258.7,22854.2C28257.2,22854.2 28255.9,22854.5 28254.7,22855.2C28253.6,22855.8 28252.8,22856.8 28252.2,22857.9ZM28307,22826.5L28307,22837L28313.9,22837L28313.9,22857.9L28307,22857.9L28307,22865C28307,22866.2 28307.4,22867 28308.1,22867.6C28308.8,22868.2 28309.6,22868.5 28310.5,22868.5L28313.9,22868.6L28313.9,22889.3L28307.7,22889.3C28304.8,22889.3 28302.1,22888.9 28299.5,22888.1C28296.9,22887.4 28294.6,22886.1 28292.6,22884.5C28290.7,22882.8 28289.1,22880.7 28288,22878.2C28286.8,22875.7 28286.2,22872.7 28286.2,22869.2L28286.2,22826.5L28307,22826.5ZM28316,22863.2C28316,22859.2 28316.7,22855.6 28318,22852.4C28319.3,22849.1 28321.2,22846.4 28323.6,22844.1C28325.9,22841.8 28328.8,22840.1 28332.2,22838.9C28335.5,22837.6 28339.2,22837 28343.3,22837C28345,22837 28346,22837 28346.3,22836.9L28346.5,22836.9C28346.6,22837 28346.5,22837 28346.3,22837L28346.3,22857.1L28343.3,22857.1C28341.5,22857.1 28340,22857.6 28338.9,22858.5C28337.9,22859.5 28337.3,22860.9 28337.3,22862.7C28337.3,22864.5 28337.9,22865.9 28338.9,22866.9C28340,22867.9 28341.5,22868.4 28343.3,22868.4L28346.3,22868.4L28346.3,22889.3L28343.3,22889.3C28339.2,22889.3 28335.5,22888.7 28332.2,22887.4C28328.8,22886.2 28325.9,22884.4 28323.6,22882.1C28321.2,22879.9 28319.3,22877.1 28318,22873.9C28316.7,22870.6 28316,22867.1 28316,22863.2ZM28363.2,22860.7L28374.1,22860.7C28374.1,22859.5 28373.4,22858.8 28372,22858.5C28370.6,22858.1 28368.5,22857.9 28365.7,22857.9L28352,22857.9L28357.1,22837L28374.1,22837C28377.2,22837 28380,22837.3 28382.6,22838C28385.1,22838.7 28387.3,22839.8 28389.1,22841.3C28391,22842.8 28392.4,22844.7 28393.4,22847C28394.4,22849.4 28394.9,22852.2 28394.9,22855.5L28394.9,22889.3L28362.4,22889.3C28359.6,22889.3 28357.3,22888.9 28355.4,22888.1C28353.5,22887.3 28352,22886.2 28350.9,22884.9C28349.8,22883.5 28348.9,22882 28348.4,22880.3C28347.9,22878.6 28347.7,22876.9 28347.7,22875.1C28347.7,22873.4 28347.9,22871.6 28348.4,22869.9C28348.9,22868.2 28349.8,22866.7 28351,22865.3C28352.3,22864 28353.9,22862.9 28355.8,22862C28357.8,22861.2 28360.3,22860.7 28363.2,22860.7ZM28369.2,22870.1C28369.2,22870.7 28369.5,22871.2 28369.9,22871.5C28370.4,22871.7 28371,22871.8 28371.6,22871.8L28374.1,22871.8L28374.1,22868.2L28371.6,22868.2C28371,22868.2 28370.4,22868.4 28369.9,22868.7C28369.5,22868.9 28369.2,22869.4 28369.2,22870.1ZM28397,22837L28421.2,22837C28423.5,22837 28425.8,22837.3 28428,22837.8C28430.2,22838.3 28432.2,22839.1 28433.9,22840.3C28435,22839.5 28436.5,22838.7 28438.3,22838C28440.1,22837.3 28442.5,22837 28445.5,22837C28448.3,22837 28451.1,22837.4 28453.6,22838.2C28456.2,22839 28458.5,22840.2 28460.5,22841.9C28462.4,22843.5 28464,22845.6 28465.1,22848.1C28466.3,22850.7 28466.9,22853.6 28466.9,22857.1L28466.9,22889.3L28446.2,22889.3L28446.2,22862C28446.2,22860.8 28446.1,22859.8 28445.9,22859C28445.7,22858.2 28445.1,22857.8 28444.1,22857.8L28442.6,22857.8L28442.6,22889.3L28421.9,22889.3L28421.9,22862C28421.9,22860.8 28421.8,22859.8 28421.6,22859C28421.4,22858.2 28420.8,22857.8 28419.8,22857.8L28418.3,22857.8L28418.3,22889.3L28397,22889.3L28397,22837ZM28469,22906.8L28469,22837L28489.9,22837C28493.5,22837 28496.9,22837.6 28500,22838.8C28503.1,22840 28505.8,22841.7 28508.1,22844C28510.5,22846.2 28512.4,22848.9 28513.7,22852.2C28515.1,22855.4 28515.8,22859.1 28515.8,22863.2C28515.8,22867.2 28515.2,22870.9 28514.1,22874.1C28513,22877.3 28511.4,22880.1 28509.2,22882.3C28507.1,22884.6 28504.4,22886.4 28501.2,22887.6C28498,22888.8 28494.2,22889.4 28489.9,22889.4L28489.9,22906.8L28469,22906.8ZM28489.9,22869.1C28491.3,22869.1 28492.4,22868.5 28493.1,22867.2C28493.9,22865.9 28494.3,22864.7 28494.3,22863.4C28494.3,22861.8 28493.9,22860.5 28493,22859.4C28492.2,22858.3 28491.1,22857.7 28489.9,22857.7L28489.9,22869.1Z" style="fill:#ffe900;"/>
        </g>
    </g>
</svg>
