<?xml version="1.0" encoding="UTF-8" standalone="no"?>
<!DOCTYPE svg PUBLIC "-//W3C//DTD SVG 1.1//EN" "http://www.w3.org/Graphics/SVG/1.1/DTD/svg11.dtd">
<svg width="100%" height="100%" viewBox="0 0 81 58" version="1.1" xmlns="http://www.w3.org/2000/svg" xmlns:xlink="http://www.w3.org/1999/xlink" xml:space="preserve" xmlns:serif="http://www.serif.com/" style="fill-rule:evenodd;clip-rule:evenodd;stroke-linejoin:round;stroke-miterlimit:2;">
    <g transform="matrix(1,0,0,1,-28554,-23239)">
        <g id="vetcamp_iso_p" transform="matrix(0.34794,0,0,0.337089,19023.5,16907)">
            <path d="M27472.1,18954C27466.4,18954 27461,18951.8 27457,18947.8L27412.8,18903.5L27412.8,18903.5C27412.5,18903.2 27412.2,18902.9 27411.9,18902.6C27385.3,18876.1 27385.3,18832.9 27411.9,18806.4C27438.4,18779.8 27481.5,18779.8 27508.1,18806.4L27508.1,18806.4C27508.6,18806.9 27509.5,18806.9 27510,18806.4C27536.7,18782.5 27577.8,18783.4 27603.5,18809.1C27629.4,18835 27630,18876.8 27605.2,18903.5L27605.3,18903.5L27561,18947.8C27557,18951.8 27551.6,18954 27545.9,18954L27472.1,18954ZM27453.4,18879.6C27457.8,18905.5 27480.4,18925.2 27507.6,18925.2C27535.2,18925.2 27558.1,18904.7 27561.9,18878.1C27562.2,18876.1 27561.6,18874.1 27560.4,18872.6C27559.1,18871.1 27557.2,18870.2 27555.2,18870.2C27555.2,18870.2 27555.2,18870.2 27555.2,18870.2C27551.8,18870.2 27548.8,18872.8 27548.3,18876.2C27545.5,18896.1 27528.3,18911.4 27507.6,18911.4C27486.3,18911.4 27468.9,18895.4 27466.6,18874.8C27466.3,18872.2 27464.1,18870.2 27461.5,18870.2C27461.4,18870.2 27461.3,18870.2 27461.3,18870.2C27458.9,18870.2 27456.7,18871.3 27455.2,18873.1C27453.7,18874.9 27453,18877.2 27453.4,18879.6Z" style="fill:#ffe900;"/>
        </g>
    </g>
</svg>
