<?xml version="1.0" encoding="UTF-8" standalone="no"?>
<!DOCTYPE svg PUBLIC "-//W3C//DTD SVG 1.1//EN" "http://www.w3.org/Graphics/SVG/1.1/DTD/svg11.dtd">
<svg width="100%" height="100%" viewBox="0 0 36 49" version="1.1" xmlns="http://www.w3.org/2000/svg" xmlns:xlink="http://www.w3.org/1999/xlink" xml:space="preserve" xmlns:serif="http://www.serif.com/" style="fill-rule:evenodd;clip-rule:evenodd;stroke-linejoin:round;stroke-miterlimit:2;">
    <g transform="matrix(1,0,0,1,-461,-912)">
        <g id="craft_iso_b" transform="matrix(9.24342,0,0,9.24342,-3889.89,-5388.06)">
            <path d="M472.673,685.067C472.661,685.066 472.65,685.071 472.644,685.081C472.541,685.26 471.635,686.829 471.635,686.829L470.705,686.292L471.683,684.599C471.689,684.588 471.687,684.575 471.679,684.566C471.409,684.267 471.253,683.855 471.253,683.375C471.253,682.396 471.963,681.668 472.911,681.668C473.817,681.668 474.49,682.279 474.582,683.197L473.468,683.197C473.45,682.836 473.236,682.61 472.918,682.61C472.55,682.61 472.336,682.891 472.336,683.375C472.336,683.87 472.544,684.145 472.918,684.145C473.242,684.145 473.444,683.925 473.468,683.552L474.582,683.552C474.49,684.494 473.847,685.082 472.911,685.082C472.83,685.082 472.75,685.077 472.673,685.067Z" style="fill:#1b1a3f;"/>
        </g>
    </g>
</svg>
