<?xml version="1.0" encoding="UTF-8" standalone="no"?>
<!DOCTYPE svg PUBLIC "-//W3C//DTD SVG 1.1//EN" "http://www.w3.org/Graphics/SVG/1.1/DTD/svg11.dtd">
<svg width="100%" height="100%" viewBox="0 0 284 59" version="1.1" xmlns="http://www.w3.org/2000/svg" xmlns:xlink="http://www.w3.org/1999/xlink" xml:space="preserve" xmlns:serif="http://www.serif.com/" style="fill-rule:evenodd;clip-rule:evenodd;stroke-linejoin:round;stroke-miterlimit:2;">
    <g transform="matrix(1,0,0,1,-683,-902)">
        <g id="craft_full_b" transform="matrix(9.24342,0,0,9.24342,-3536.77,-5390.49)">
            <path d="M472.826,685.088C471.951,685.088 471.363,684.409 471.363,683.387C471.363,682.451 471.975,681.753 472.795,681.753C473.676,681.753 474.245,682.457 474.202,683.485L471.645,683.485C471.682,684.323 472.128,684.855 472.826,684.855C473.419,684.855 473.829,684.513 473.939,683.937L474.215,683.937C474.086,684.641 473.554,685.088 472.826,685.088ZM472.795,681.974C472.153,681.974 471.688,682.494 471.651,683.264L473.909,683.264C473.866,682.457 473.45,681.974 472.795,681.974ZM474.845,683.112L474.845,685.02L474.563,685.02L474.563,681.814L474.833,681.814L474.833,682.469C475.028,682.047 475.438,681.753 475.915,681.753C476.595,681.753 477.017,682.182 477.017,682.934L477.017,685.02L476.735,685.02L476.735,683.038C476.735,682.371 476.417,681.992 475.848,681.992C475.291,681.992 474.845,682.481 474.845,683.112ZM478.742,686.269C477.941,686.269 477.451,685.852 477.414,685.149L477.684,685.149C477.726,685.724 478.1,686.036 478.736,686.036C479.427,686.036 479.788,685.669 479.788,684.984L479.788,684.243C479.593,684.739 479.183,685.033 478.675,685.033C477.861,685.033 477.329,684.384 477.329,683.387C477.329,682.396 477.861,681.753 478.675,681.753C479.176,681.753 479.599,682.065 479.801,682.579L479.801,681.814L480.07,681.814L480.07,684.978C480.07,685.797 479.586,686.269 478.742,686.269ZM477.616,683.387C477.616,684.262 478.026,684.788 478.705,684.788C479.36,684.788 479.801,684.25 479.801,683.424C479.801,682.549 479.372,681.992 478.705,681.992C478.032,681.992 477.616,682.518 477.616,683.387ZM481.073,681.068C481.073,681.221 480.957,681.337 480.804,681.337C480.645,681.337 480.529,681.221 480.529,681.068C480.529,680.921 480.645,680.817 480.804,680.817C480.957,680.817 481.073,680.921 481.073,681.068ZM480.945,685.02L480.663,685.02L480.663,681.814L480.945,681.814L480.945,685.02ZM481.813,683.112L481.813,685.02L481.532,685.02L481.532,681.814L481.801,681.814L481.801,682.469C481.997,682.047 482.407,681.753 482.884,681.753C483.563,681.753 483.985,682.182 483.985,682.934L483.985,685.02L483.704,685.02L483.704,683.038C483.704,682.371 483.386,681.992 482.817,681.992C482.26,681.992 481.813,682.481 481.813,683.112ZM485.76,685.088C484.885,685.088 484.297,684.409 484.297,683.387C484.297,682.451 484.909,681.753 485.729,681.753C486.61,681.753 487.179,682.457 487.136,683.485L484.579,683.485C484.616,684.323 485.062,684.855 485.76,684.855C486.353,684.855 486.763,684.513 486.873,683.937L487.149,683.937C487.02,684.641 486.488,685.088 485.76,685.088ZM485.729,681.974C485.087,681.974 484.622,682.494 484.585,683.264L486.843,683.264C486.8,682.457 486.384,681.974 485.729,681.974ZM458.552,685.33C458.541,685.329 458.53,685.334 458.524,685.344C458.421,685.523 457.515,687.092 457.515,687.092L456.585,686.555L457.562,684.862C457.568,684.851 457.567,684.838 457.559,684.829C457.289,684.53 457.133,684.118 457.133,683.638C457.133,682.659 457.843,681.931 458.791,681.931C459.696,681.931 460.369,682.543 460.461,683.46L459.348,683.46C459.329,683.099 459.115,682.873 458.797,682.873C458.43,682.873 458.216,683.154 458.216,683.638C458.216,684.133 458.424,684.409 458.797,684.409C459.121,684.409 459.323,684.188 459.348,683.815L460.461,683.815C460.369,684.757 459.727,685.345 458.791,685.345C458.709,685.345 458.63,685.34 458.552,685.33ZM465.637,682.693L465.637,681.992L466.249,681.992L466.249,681.876C466.249,681.197 466.616,680.817 467.35,680.817C467.589,680.817 467.791,680.86 467.944,680.927L467.944,681.753C467.858,681.717 467.724,681.692 467.613,681.692C467.436,681.692 467.295,681.747 467.295,681.9L467.295,681.992L468.537,681.992L468.537,681.025L469.584,681.025L469.584,681.992L470.483,681.992L470.483,682.903L469.584,682.903L469.584,683.907C469.584,684.225 469.718,684.372 470.006,684.372C470.177,684.372 470.342,684.329 470.458,684.256L470.458,685.167C470.226,685.296 470.006,685.345 469.712,685.345C468.972,685.345 468.537,684.904 468.537,684.152L468.537,682.903L467.295,682.903L467.295,685.283L466.249,685.283L466.249,682.903L465.7,682.903C465.723,683.012 465.735,683.128 465.735,683.252L465.735,685.283L464.891,685.283L464.891,684.965C464.658,685.228 464.371,685.345 463.949,685.345C463.263,685.345 462.805,684.935 462.805,684.311C462.805,683.668 463.325,683.32 464.267,683.32C464.444,683.32 464.609,683.332 464.75,683.356L464.75,683.197C464.75,682.91 464.585,682.751 464.291,682.751C464.004,682.751 463.832,682.91 463.796,683.197L462.853,683.197C462.915,682.432 463.484,681.931 464.297,681.931C464.976,681.931 465.445,682.205 465.637,682.693ZM463.79,684.28C463.79,684.494 463.936,684.623 464.193,684.623C464.542,684.623 464.75,684.458 464.75,684.188L464.75,683.98C464.591,683.95 464.469,683.937 464.334,683.937C463.979,683.937 463.79,684.054 463.79,684.28ZM461.587,683.766L461.587,685.283L460.541,685.283L460.541,681.992L461.501,681.992L461.501,682.573C461.752,682.188 462.272,681.967 462.798,681.967L462.798,683.056C462.058,682.983 461.587,683.038 461.587,683.766Z" style="fill:#1b1a3f;"/>
        </g>
    </g>
</svg>
