<?xml version="1.0" encoding="UTF-8" standalone="no"?>
<!DOCTYPE svg PUBLIC "-//W3C//DTD SVG 1.1//EN" "http://www.w3.org/Graphics/SVG/1.1/DTD/svg11.dtd">
<svg width="100%" height="100%" viewBox="0 0 284 60" version="1.1" xmlns="http://www.w3.org/2000/svg" xmlns:xlink="http://www.w3.org/1999/xlink" xml:space="preserve" xmlns:serif="http://www.serif.com/" style="fill-rule:evenodd;clip-rule:evenodd;stroke-linejoin:round;stroke-miterlimit:2;">
    <g transform="matrix(1,0,0,1,-683,-962)">
        <g id="craft_full_w" transform="matrix(9.24342,0,0,9.24342,-3536.77,-5330.41)">
            <path d="M472.826,685.088C471.951,685.088 471.363,684.409 471.363,683.387C471.363,682.451 471.975,681.753 472.795,681.753C473.676,681.753 474.245,682.457 474.202,683.485L471.645,683.485C471.682,684.323 472.128,684.855 472.826,684.855C473.419,684.855 473.829,684.513 473.939,683.937L474.215,683.937C474.086,684.641 473.554,685.088 472.826,685.088ZM472.795,681.974C472.153,681.974 471.688,682.494 471.651,683.264L473.909,683.264C473.866,682.457 473.45,681.974 472.795,681.974ZM474.845,683.112L474.845,685.02L474.563,685.02L474.563,681.814L474.833,681.814L474.833,682.469C475.028,682.047 475.438,681.753 475.915,681.753C476.595,681.753 477.017,682.182 477.017,682.934L477.017,685.02L476.735,685.02L476.735,683.038C476.735,682.371 476.417,681.992 475.848,681.992C475.291,681.992 474.845,682.481 474.845,683.112ZM478.742,686.269C477.941,686.269 477.451,685.852 477.414,685.149L477.684,685.149C477.726,685.724 478.1,686.036 478.736,686.036C479.427,686.036 479.788,685.669 479.788,684.984L479.788,684.243C479.593,684.739 479.183,685.033 478.675,685.033C477.861,685.033 477.329,684.384 477.329,683.387C477.329,682.396 477.861,681.753 478.675,681.753C479.176,681.753 479.599,682.065 479.801,682.579L479.801,681.814L480.07,681.814L480.07,684.978C480.07,685.797 479.586,686.269 478.742,686.269ZM477.616,683.387C477.616,684.262 478.026,684.788 478.705,684.788C479.36,684.788 479.801,684.25 479.801,683.424C479.801,682.549 479.372,681.992 478.705,681.992C478.032,681.992 477.616,682.518 477.616,683.387ZM481.073,681.068C481.073,681.221 480.957,681.337 480.804,681.337C480.645,681.337 480.529,681.221 480.529,681.068C480.529,680.921 480.645,680.817 480.804,680.817C480.957,680.817 481.073,680.921 481.073,681.068ZM480.945,685.02L480.663,685.02L480.663,681.814L480.945,681.814L480.945,685.02ZM481.813,683.112L481.813,685.02L481.532,685.02L481.532,681.814L481.801,681.814L481.801,682.469C481.997,682.047 482.407,681.753 482.884,681.753C483.563,681.753 483.985,682.182 483.985,682.934L483.985,685.02L483.704,685.02L483.704,683.038C483.704,682.371 483.386,681.992 482.817,681.992C482.26,681.992 481.813,682.481 481.813,683.112ZM485.76,685.088C484.885,685.088 484.297,684.409 484.297,683.387C484.297,682.451 484.909,681.753 485.729,681.753C486.61,681.753 487.179,682.457 487.136,683.485L484.579,683.485C484.616,684.323 485.062,684.855 485.76,684.855C486.353,684.855 486.763,684.513 486.873,683.937L487.149,683.937C487.02,684.641 486.488,685.088 485.76,685.088ZM485.729,681.974C485.087,681.974 484.622,682.494 484.585,683.264L486.843,683.264C486.8,682.457 486.384,681.974 485.729,681.974ZM458.552,685.438C458.541,685.437 458.53,685.442 458.524,685.452C458.421,685.631 457.515,687.2 457.515,687.2L456.585,686.664L457.562,684.97C457.568,684.96 457.567,684.946 457.559,684.937C457.289,684.638 457.133,684.226 457.133,683.746C457.133,682.767 457.843,682.039 458.791,682.039C459.696,682.039 460.369,682.651 460.461,683.568L459.348,683.568C459.329,683.207 459.115,682.981 458.797,682.981C458.43,682.981 458.216,683.263 458.216,683.746C458.216,684.241 458.424,684.517 458.797,684.517C459.121,684.517 459.323,684.297 459.348,683.923L460.461,683.923C460.369,684.866 459.727,685.453 458.791,685.453C458.709,685.453 458.63,685.448 458.552,685.438ZM465.637,682.801L465.637,682.1L466.249,682.1L466.249,681.984C466.249,681.305 466.616,680.925 467.35,680.925C467.589,680.925 467.791,680.968 467.944,681.035L467.944,681.861C467.858,681.825 467.724,681.8 467.613,681.8C467.436,681.8 467.295,681.855 467.295,682.008L467.295,682.1L468.537,682.1L468.537,681.133L469.584,681.133L469.584,682.1L470.483,682.1L470.483,683.012L469.584,683.012L469.584,684.015C469.584,684.333 469.718,684.48 470.006,684.48C470.177,684.48 470.342,684.437 470.458,684.364L470.458,685.275C470.226,685.404 470.006,685.453 469.712,685.453C468.972,685.453 468.537,685.012 468.537,684.26L468.537,683.012L467.295,683.012L467.295,685.392L466.249,685.392L466.249,683.012L465.7,683.012C465.723,683.12 465.735,683.236 465.735,683.36L465.735,685.392L464.891,685.392L464.891,685.074C464.658,685.337 464.371,685.453 463.949,685.453C463.263,685.453 462.805,685.043 462.805,684.419C462.805,683.776 463.325,683.428 464.267,683.428C464.444,683.428 464.609,683.44 464.75,683.464L464.75,683.305C464.75,683.018 464.585,682.859 464.291,682.859C464.004,682.859 463.832,683.018 463.796,683.305L462.853,683.305C462.915,682.541 463.484,682.039 464.297,682.039C464.976,682.039 465.445,682.314 465.637,682.801ZM463.79,684.388C463.79,684.602 463.936,684.731 464.193,684.731C464.542,684.731 464.75,684.566 464.75,684.297L464.75,684.088C464.591,684.058 464.469,684.046 464.334,684.046C463.979,684.046 463.79,684.162 463.79,684.388ZM461.587,683.874L461.587,685.392L460.541,685.392L460.541,682.1L461.501,682.1L461.501,682.681C461.752,682.296 462.272,682.076 462.798,682.076L462.798,683.165C462.058,683.091 461.587,683.146 461.587,683.874Z" style="fill:#fff;"/>
        </g>
    </g>
</svg>
