<?xml version="1.0" encoding="UTF-8" standalone="no"?>
<!DOCTYPE svg PUBLIC "-//W3C//DTD SVG 1.1//EN" "http://www.w3.org/Graphics/SVG/1.1/DTD/svg11.dtd">
<svg width="100%" height="100%" viewBox="0 0 130 59" version="1.1" xmlns="http://www.w3.org/2000/svg" xmlns:xlink="http://www.w3.org/1999/xlink" xml:space="preserve" xmlns:serif="http://www.serif.com/" style="fill-rule:evenodd;clip-rule:evenodd;stroke-linejoin:round;stroke-miterlimit:2;">
    <g transform="matrix(1,0,0,1,-531,-963)">
        <g id="craft_med_w" transform="matrix(9.24342,0,0,9.24342,-3819.07,-5326.98)">
            <path d="M472.673,685.067C472.661,685.066 472.65,685.071 472.644,685.081C472.541,685.26 471.635,686.829 471.635,686.829L470.705,686.292L471.683,684.599C471.689,684.588 471.687,684.575 471.679,684.566C471.409,684.267 471.253,683.855 471.253,683.375C471.253,682.396 471.963,681.668 472.911,681.668C473.817,681.668 474.49,682.279 474.582,683.197L473.468,683.197C473.45,682.836 473.236,682.61 472.918,682.61C472.55,682.61 472.336,682.891 472.336,683.375C472.336,683.87 472.544,684.145 472.918,684.145C473.242,684.145 473.444,683.925 473.468,683.552L474.582,683.552C474.49,684.494 473.847,685.082 472.911,685.082C472.83,685.082 472.75,685.077 472.673,685.067ZM479.758,682.43L479.758,681.729L480.37,681.729L480.37,681.613C480.37,680.933 480.737,680.554 481.471,680.554C481.709,680.554 481.911,680.597 482.064,680.664L482.064,681.49C481.979,681.453 481.844,681.429 481.734,681.429C481.556,681.429 481.416,681.484 481.416,681.637L481.416,681.729L482.658,681.729L482.658,680.762L483.704,680.762L483.704,681.729L484.603,681.729L484.603,682.64L483.704,682.64L483.704,683.644C483.704,683.962 483.839,684.109 484.126,684.109C484.297,684.109 484.463,684.066 484.579,683.993L484.579,684.904C484.346,685.033 484.126,685.082 483.832,685.082C483.092,685.082 482.658,684.641 482.658,683.889L482.658,682.64L481.416,682.64L481.416,685.02L480.37,685.02L480.37,682.64L479.821,682.64C479.844,682.749 479.856,682.865 479.856,682.989L479.856,685.02L479.011,685.02L479.011,684.702C478.779,684.965 478.491,685.082 478.069,685.082C477.384,685.082 476.925,684.672 476.925,684.048C476.925,683.405 477.445,683.056 478.387,683.056C478.565,683.056 478.73,683.069 478.871,683.093L478.871,682.934C478.871,682.647 478.705,682.487 478.412,682.487C478.124,682.487 477.953,682.647 477.916,682.934L476.974,682.934C477.035,682.169 477.604,681.668 478.418,681.668C479.096,681.668 479.565,681.942 479.758,682.43ZM477.91,684.017C477.91,684.231 478.057,684.36 478.314,684.36C478.663,684.36 478.871,684.194 478.871,683.925L478.871,683.717C478.711,683.687 478.589,683.674 478.455,683.674C478.1,683.674 477.91,683.791 477.91,684.017ZM475.707,683.503L475.707,685.02L474.661,685.02L474.661,681.729L475.622,681.729L475.622,682.31C475.873,681.925 476.393,681.704 476.919,681.704L476.919,682.793C476.179,682.72 475.707,682.775 475.707,683.503Z" style="fill:#fff;"/>
        </g>
    </g>
</svg>
